<svg xmlns="http://www.w3.org/2000/svg" version="1.1" xmlns:xlink="http://www.w3.org/1999/xlink" xmlns:svgjs="http://svgjs.dev/svgjs" width="1440" height="720" preserveAspectRatio="none" viewBox="0 0 1440 720"><g mask="url(&quot;#SvgjsMask1483&quot;)" fill="none"><rect width="1440" height="720" x="0" y="0" fill="url(&quot;#SvgjsLinearGradient1484&quot;)"></rect><path d="M-84.8 516.41L-84.8 516.41" stroke="rgba(13, 35, 82, 1)" stroke-width="1.5"></path><path d="M-84.8 516.41L-80.05 648.95" stroke="rgba(13, 35, 82, 1)" stroke-width="1.5"></path><path d="M-80.05 648.95L-80.05 648.95" stroke="rgba(13, 35, 82, 1)" stroke-width="1.5"></path><path d="M-80.05 648.95L53.4 638.01" stroke="rgba(13, 35, 82, 1)" stroke-width="1.5"></path><path d="M-80.05 648.95L-41.11 838.43" stroke="rgba(13, 35, 82, 1)" stroke-width="1.5"></path><path d="M-80.05 648.95L104.21 550.49" stroke="rgba(13, 35, 82, 1)" stroke-width="1.5"></path><path d="M-41.11 838.43L-41.11 838.43" stroke="rgba(13, 35, 82, 1)" stroke-width="1.5"></path><path d="M-41.11 838.43L111.8 811.99" stroke="rgba(13, 35, 82, 1)" stroke-width="1.5"></path><path d="M-41.11 838.43L53.4 638.01" stroke="rgba(13, 35, 82, 1)" stroke-width="1.5"></path><path d="M-41.11 838.43L191.13 663.93" stroke="rgba(13, 35, 82, 1)" stroke-width="1.5"></path><path d="M-41.11 838.43L104.21 550.49" stroke="rgba(13, 35, 82, 1)" stroke-width="1.5"></path><path d="M-41.11 838.43L-84.8 516.41" stroke="rgba(13, 35, 82, 1)" stroke-width="1.5"></path><path d="M104.21 550.49L104.21 550.49" stroke="rgba(13, 35, 82, 1)" stroke-width="1.5"></path><path d="M104.21 550.49L53.4 638.01" stroke="rgba(13, 35, 82, 1)" stroke-width="1.5"></path><path d="M104.21 550.49L191.13 663.93" stroke="rgba(13, 35, 82, 1)" stroke-width="1.5"></path><path d="M104.21 550.49L254.45 488.97" stroke="rgba(13, 35, 82, 1)" stroke-width="1.5"></path><path d="M104.21 550.49L-84.8 516.41" stroke="rgba(13, 35, 82, 1)" stroke-width="1.5"></path><path d="M53.4 638.01L53.4 638.01" stroke="rgba(13, 35, 82, 1)" stroke-width="1.5"></path><path d="M53.4 638.01L191.13 663.93" stroke="rgba(13, 35, 82, 1)" stroke-width="1.5"></path><path d="M53.4 638.01L111.8 811.99" stroke="rgba(13, 35, 82, 1)" stroke-width="1.5"></path><path d="M111.8 811.99L111.8 811.99" stroke="rgba(13, 35, 82, 1)" stroke-width="1.5"></path><path d="M111.8 811.99L191.13 663.93" stroke="rgba(13, 35, 82, 1)" stroke-width="1.5"></path><path d="M111.8 811.99L349.93 789.44" stroke="rgba(13, 35, 82, 1)" stroke-width="1.5"></path><path d="M111.8 811.99L-80.05 648.95" stroke="rgba(13, 35, 82, 1)" stroke-width="1.5"></path><path d="M111.8 811.99L104.21 550.49" stroke="rgba(13, 35, 82, 1)" stroke-width="1.5"></path><path d="M254.45 488.97L254.45 488.97" stroke="rgba(13, 35, 82, 1)" stroke-width="1.5"></path><path d="M254.45 488.97L341.74 560.77" stroke="rgba(13, 35, 82, 1)" stroke-width="1.5"></path><path d="M254.45 488.97L388.85 403.07" stroke="rgba(13, 35, 82, 1)" stroke-width="1.5"></path><path d="M191.13 663.93L191.13 663.93" stroke="rgba(13, 35, 82, 1)" stroke-width="1.5"></path><path d="M191.13 663.93L341.74 560.77" stroke="rgba(13, 35, 82, 1)" stroke-width="1.5"></path><path d="M191.13 663.93L254.45 488.97" stroke="rgba(13, 35, 82, 1)" stroke-width="1.5"></path><path d="M191.13 663.93L379.77 656.44" stroke="rgba(13, 35, 82, 1)" stroke-width="1.5"></path><path d="M388.85 403.07L388.85 403.07" stroke="rgba(13, 35, 82, 1)" stroke-width="1.5"></path><path d="M388.85 403.07L500.18 492.86" stroke="rgba(13, 35, 82, 1)" stroke-width="1.5"></path><path d="M388.85 403.07L341.74 560.77" stroke="rgba(13, 35, 82, 1)" stroke-width="1.5"></path><path d="M388.85 403.07L379.77 656.44" stroke="rgba(13, 35, 82, 1)" stroke-width="1.5"></path><path d="M388.85 403.07L640.45 495.14" stroke="rgba(13, 35, 82, 1)" stroke-width="1.5"></path><path d="M388.85 403.07L662.52 358.99" stroke="rgba(13, 35, 82, 1)" stroke-width="1.5"></path><path d="M341.74 560.77L341.74 560.77" stroke="rgba(13, 35, 82, 1)" stroke-width="1.5"></path><path d="M341.74 560.77L379.77 656.44" stroke="rgba(13, 35, 82, 1)" stroke-width="1.5"></path><path d="M379.77 656.44L379.77 656.44" stroke="rgba(13, 35, 82, 1)" stroke-width="1.5"></path><path d="M349.93 789.44L349.93 789.44" stroke="rgba(13, 35, 82, 1)" stroke-width="1.5"></path><path d="M349.93 789.44L379.77 656.44" stroke="rgba(13, 35, 82, 1)" stroke-width="1.5"></path><path d="M349.93 789.44L522.26 790.64" stroke="rgba(13, 35, 82, 1)" stroke-width="1.5"></path><path d="M349.93 789.44L191.13 663.93" stroke="rgba(13, 35, 82, 1)" stroke-width="1.5"></path><path d="M500.18 492.86L500.18 492.86" stroke="rgba(13, 35, 82, 1)" stroke-width="1.5"></path><path d="M500.18 492.86L640.45 495.14" stroke="rgba(13, 35, 82, 1)" stroke-width="1.5"></path><path d="M500.18 492.86L341.74 560.77" stroke="rgba(13, 35, 82, 1)" stroke-width="1.5"></path><path d="M547.75 684.94L547.75 684.94" stroke="rgba(13, 35, 82, 1)" stroke-width="1.5"></path><path d="M547.75 684.94L522.26 790.64" stroke="rgba(13, 35, 82, 1)" stroke-width="1.5"></path><path d="M547.75 684.94L682.26 658.12" stroke="rgba(13, 35, 82, 1)" stroke-width="1.5"></path><path d="M547.75 684.94L379.77 656.44" stroke="rgba(13, 35, 82, 1)" stroke-width="1.5"></path><path d="M547.75 684.94L665.26 821.34" stroke="rgba(13, 35, 82, 1)" stroke-width="1.5"></path><path d="M547.75 684.94L500.18 492.86" stroke="rgba(13, 35, 82, 1)" stroke-width="1.5"></path><path d="M547.75 684.94L640.45 495.14" stroke="rgba(13, 35, 82, 1)" stroke-width="1.5"></path><path d="M522.26 790.64L522.26 790.64" stroke="rgba(13, 35, 82, 1)" stroke-width="1.5"></path><path d="M522.26 790.64L665.26 821.34" stroke="rgba(13, 35, 82, 1)" stroke-width="1.5"></path><path d="M522.26 790.64L379.77 656.44" stroke="rgba(13, 35, 82, 1)" stroke-width="1.5"></path><path d="M522.26 790.64L682.26 658.12" stroke="rgba(13, 35, 82, 1)" stroke-width="1.5"></path><path d="M662.52 358.99L662.52 358.99" stroke="rgba(13, 35, 82, 1)" stroke-width="1.5"></path><path d="M662.52 358.99L640.45 495.14" stroke="rgba(13, 35, 82, 1)" stroke-width="1.5"></path><path d="M662.52 358.99L802.2 340.13" stroke="rgba(13, 35, 82, 1)" stroke-width="1.5"></path><path d="M662.52 358.99L797.04 197.93" stroke="rgba(13, 35, 82, 1)" stroke-width="1.5"></path><path d="M662.52 358.99L500.18 492.86" stroke="rgba(13, 35, 82, 1)" stroke-width="1.5"></path><path d="M640.45 495.14L640.45 495.14" stroke="rgba(13, 35, 82, 1)" stroke-width="1.5"></path><path d="M640.45 495.14L682.26 658.12" stroke="rgba(13, 35, 82, 1)" stroke-width="1.5"></path><path d="M640.45 495.14L802.2 340.13" stroke="rgba(13, 35, 82, 1)" stroke-width="1.5"></path><path d="M682.26 658.12L682.26 658.12" stroke="rgba(13, 35, 82, 1)" stroke-width="1.5"></path><path d="M682.26 658.12L820.32 704.82" stroke="rgba(13, 35, 82, 1)" stroke-width="1.5"></path><path d="M665.26 821.34L665.26 821.34" stroke="rgba(13, 35, 82, 1)" stroke-width="1.5"></path><path d="M665.26 821.34L813.08 837.48" stroke="rgba(13, 35, 82, 1)" stroke-width="1.5"></path><path d="M665.26 821.34L682.26 658.12" stroke="rgba(13, 35, 82, 1)" stroke-width="1.5"></path><path d="M665.26 821.34L820.32 704.82" stroke="rgba(13, 35, 82, 1)" stroke-width="1.5"></path><path d="M665.26 821.34L947.53 812.82" stroke="rgba(13, 35, 82, 1)" stroke-width="1.5"></path><path d="M797.04 197.93L797.04 197.93" stroke="rgba(13, 35, 82, 1)" stroke-width="1.5"></path><path d="M797.04 197.93L802.2 340.13" stroke="rgba(13, 35, 82, 1)" stroke-width="1.5"></path><path d="M797.04 197.93L944.64 195.26" stroke="rgba(13, 35, 82, 1)" stroke-width="1.5"></path><path d="M802.2 340.13L802.2 340.13" stroke="rgba(13, 35, 82, 1)" stroke-width="1.5"></path><path d="M802.2 340.13L979.37 359.11" stroke="rgba(13, 35, 82, 1)" stroke-width="1.5"></path><path d="M820.32 704.82L820.32 704.82" stroke="rgba(13, 35, 82, 1)" stroke-width="1.5"></path><path d="M820.32 704.82L813.08 837.48" stroke="rgba(13, 35, 82, 1)" stroke-width="1.5"></path><path d="M820.32 704.82L955.79 683.86" stroke="rgba(13, 35, 82, 1)" stroke-width="1.5"></path><path d="M813.08 837.48L813.08 837.48" stroke="rgba(13, 35, 82, 1)" stroke-width="1.5"></path><path d="M813.08 837.48L947.53 812.82" stroke="rgba(13, 35, 82, 1)" stroke-width="1.5"></path><path d="M944.45 -111.45L944.45 -111.45" stroke="rgba(13, 35, 82, 1)" stroke-width="1.5"></path><path d="M944.45 -111.45L1009.21 91.53" stroke="rgba(13, 35, 82, 1)" stroke-width="1.5"></path><path d="M944.45 -111.45L1151.53 -39.75" stroke="rgba(13, 35, 82, 1)" stroke-width="1.5"></path><path d="M944.45 -111.45L1094.01 81.18" stroke="rgba(13, 35, 82, 1)" stroke-width="1.5"></path><path d="M1009.21 91.53L1009.21 91.53" stroke="rgba(13, 35, 82, 1)" stroke-width="1.5"></path><path d="M1009.21 91.53L1094.01 81.18" stroke="rgba(13, 35, 82, 1)" stroke-width="1.5"></path><path d="M1009.21 91.53L944.64 195.26" stroke="rgba(13, 35, 82, 1)" stroke-width="1.5"></path><path d="M1009.21 91.53L1136.88 202.29" stroke="rgba(13, 35, 82, 1)" stroke-width="1.5"></path><path d="M944.64 195.26L944.64 195.26" stroke="rgba(13, 35, 82, 1)" stroke-width="1.5"></path><path d="M944.64 195.26L979.37 359.11" stroke="rgba(13, 35, 82, 1)" stroke-width="1.5"></path><path d="M944.64 195.26L1094.01 81.18" stroke="rgba(13, 35, 82, 1)" stroke-width="1.5"></path><path d="M944.64 195.26L1136.88 202.29" stroke="rgba(13, 35, 82, 1)" stroke-width="1.5"></path><path d="M944.64 195.26L802.2 340.13" stroke="rgba(13, 35, 82, 1)" stroke-width="1.5"></path><path d="M979.37 359.11L979.37 359.11" stroke="rgba(13, 35, 82, 1)" stroke-width="1.5"></path><path d="M979.37 359.11L1104.08 388.37" stroke="rgba(13, 35, 82, 1)" stroke-width="1.5"></path><path d="M979.37 359.11L993.92 516.32" stroke="rgba(13, 35, 82, 1)" stroke-width="1.5"></path><path d="M993.92 516.32L993.92 516.32" stroke="rgba(13, 35, 82, 1)" stroke-width="1.5"></path><path d="M993.92 516.32L1093.96 501.17" stroke="rgba(13, 35, 82, 1)" stroke-width="1.5"></path><path d="M955.79 683.86L955.79 683.86" stroke="rgba(13, 35, 82, 1)" stroke-width="1.5"></path><path d="M955.79 683.86L947.53 812.82" stroke="rgba(13, 35, 82, 1)" stroke-width="1.5"></path><path d="M955.79 683.86L1090.12 790.26" stroke="rgba(13, 35, 82, 1)" stroke-width="1.5"></path><path d="M955.79 683.86L993.92 516.32" stroke="rgba(13, 35, 82, 1)" stroke-width="1.5"></path><path d="M955.79 683.86L813.08 837.48" stroke="rgba(13, 35, 82, 1)" stroke-width="1.5"></path><path d="M955.79 683.86L1093.96 501.17" stroke="rgba(13, 35, 82, 1)" stroke-width="1.5"></path><path d="M947.53 812.82L947.53 812.82" stroke="rgba(13, 35, 82, 1)" stroke-width="1.5"></path><path d="M947.53 812.82L1090.12 790.26" stroke="rgba(13, 35, 82, 1)" stroke-width="1.5"></path><path d="M1151.53 -39.75L1151.53 -39.75" stroke="rgba(13, 35, 82, 1)" stroke-width="1.5"></path><path d="M1151.53 -39.75L1278.04 -46.53" stroke="rgba(13, 35, 82, 1)" stroke-width="1.5"></path><path d="M1151.53 -39.75L1094.01 81.18" stroke="rgba(13, 35, 82, 1)" stroke-width="1.5"></path><path d="M1151.53 -39.75L1009.21 91.53" stroke="rgba(13, 35, 82, 1)" stroke-width="1.5"></path><path d="M1094.01 81.18L1094.01 81.18" stroke="rgba(13, 35, 82, 1)" stroke-width="1.5"></path><path d="M1094.01 81.18L1136.88 202.29" stroke="rgba(13, 35, 82, 1)" stroke-width="1.5"></path><path d="M1136.88 202.29L1136.88 202.29" stroke="rgba(13, 35, 82, 1)" stroke-width="1.5"></path><path d="M1136.88 202.29L1253.87 213.48" stroke="rgba(13, 35, 82, 1)" stroke-width="1.5"></path><path d="M1136.88 202.29L1104.08 388.37" stroke="rgba(13, 35, 82, 1)" stroke-width="1.5"></path><path d="M1104.08 388.37L1104.08 388.37" stroke="rgba(13, 35, 82, 1)" stroke-width="1.5"></path><path d="M1104.08 388.37L1093.96 501.17" stroke="rgba(13, 35, 82, 1)" stroke-width="1.5"></path><path d="M1104.08 388.37L993.92 516.32" stroke="rgba(13, 35, 82, 1)" stroke-width="1.5"></path><path d="M1104.08 388.37L1267.91 347.52" stroke="rgba(13, 35, 82, 1)" stroke-width="1.5"></path><path d="M1093.96 501.17L1093.96 501.17" stroke="rgba(13, 35, 82, 1)" stroke-width="1.5"></path><path d="M1093.96 501.17L979.37 359.11" stroke="rgba(13, 35, 82, 1)" stroke-width="1.5"></path><path d="M1093.96 501.17L1274.13 551.81" stroke="rgba(13, 35, 82, 1)" stroke-width="1.5"></path><path d="M1093.96 501.17L1267.91 347.52" stroke="rgba(13, 35, 82, 1)" stroke-width="1.5"></path><path d="M1090.12 790.26L1090.12 790.26" stroke="rgba(13, 35, 82, 1)" stroke-width="1.5"></path><path d="M1278.04 -46.53L1278.04 -46.53" stroke="rgba(13, 35, 82, 1)" stroke-width="1.5"></path><path d="M1278.04 -46.53L1394.48 89.92" stroke="rgba(13, 35, 82, 1)" stroke-width="1.5"></path><path d="M1278.04 -46.53L1094.01 81.18" stroke="rgba(13, 35, 82, 1)" stroke-width="1.5"></path><path d="M1278.04 -46.53L1253.87 213.48" stroke="rgba(13, 35, 82, 1)" stroke-width="1.5"></path><path d="M1278.04 -46.53L1136.88 202.29" stroke="rgba(13, 35, 82, 1)" stroke-width="1.5"></path><path d="M1253.87 213.48L1253.87 213.48" stroke="rgba(13, 35, 82, 1)" stroke-width="1.5"></path><path d="M1253.87 213.48L1267.91 347.52" stroke="rgba(13, 35, 82, 1)" stroke-width="1.5"></path><path d="M1253.87 213.48L1427.99 229.66" stroke="rgba(13, 35, 82, 1)" stroke-width="1.5"></path><path d="M1253.87 213.48L1394.48 89.92" stroke="rgba(13, 35, 82, 1)" stroke-width="1.5"></path><path d="M1253.87 213.48L1094.01 81.18" stroke="rgba(13, 35, 82, 1)" stroke-width="1.5"></path><path d="M1267.91 347.52L1267.91 347.52" stroke="rgba(13, 35, 82, 1)" stroke-width="1.5"></path><path d="M1267.91 347.52L1413.61 346.78" stroke="rgba(13, 35, 82, 1)" stroke-width="1.5"></path><path d="M1267.91 347.52L1136.88 202.29" stroke="rgba(13, 35, 82, 1)" stroke-width="1.5"></path><path d="M1267.91 347.52L1427.99 229.66" stroke="rgba(13, 35, 82, 1)" stroke-width="1.5"></path><path d="M1274.13 551.81L1274.13 551.81" stroke="rgba(13, 35, 82, 1)" stroke-width="1.5"></path><path d="M1274.13 551.81L1284.98 664.48" stroke="rgba(13, 35, 82, 1)" stroke-width="1.5"></path><path d="M1274.13 551.81L1436.39 551.49" stroke="rgba(13, 35, 82, 1)" stroke-width="1.5"></path><path d="M1274.13 551.81L1267.91 347.52" stroke="rgba(13, 35, 82, 1)" stroke-width="1.5"></path><path d="M1284.98 664.48L1284.98 664.48" stroke="rgba(13, 35, 82, 1)" stroke-width="1.5"></path><path d="M1284.98 664.48L1269.87 820.44" stroke="rgba(13, 35, 82, 1)" stroke-width="1.5"></path><path d="M1269.87 820.44L1269.87 820.44" stroke="rgba(13, 35, 82, 1)" stroke-width="1.5"></path><path d="M1269.87 820.44L1430.08 856.56" stroke="rgba(13, 35, 82, 1)" stroke-width="1.5"></path><path d="M1269.87 820.44L1090.12 790.26" stroke="rgba(13, 35, 82, 1)" stroke-width="1.5"></path><path d="M1269.87 820.44L1456.25 700.5" stroke="rgba(13, 35, 82, 1)" stroke-width="1.5"></path><path d="M1394.48 89.92L1394.48 89.92" stroke="rgba(13, 35, 82, 1)" stroke-width="1.5"></path><path d="M1394.48 89.92L1427.99 229.66" stroke="rgba(13, 35, 82, 1)" stroke-width="1.5"></path><path d="M1394.48 89.92L1565.1 104.58" stroke="rgba(13, 35, 82, 1)" stroke-width="1.5"></path><path d="M1427.99 229.66L1427.99 229.66" stroke="rgba(13, 35, 82, 1)" stroke-width="1.5"></path><path d="M1427.99 229.66L1541.64 238.5" stroke="rgba(13, 35, 82, 1)" stroke-width="1.5"></path><path d="M1427.99 229.66L1413.61 346.78" stroke="rgba(13, 35, 82, 1)" stroke-width="1.5"></path><path d="M1427.99 229.66L1565.1 104.58" stroke="rgba(13, 35, 82, 1)" stroke-width="1.5"></path><path d="M1413.61 346.78L1413.61 346.78" stroke="rgba(13, 35, 82, 1)" stroke-width="1.5"></path><path d="M1413.61 346.78L1570.22 379.9" stroke="rgba(13, 35, 82, 1)" stroke-width="1.5"></path><path d="M1413.61 346.78L1541.64 238.5" stroke="rgba(13, 35, 82, 1)" stroke-width="1.5"></path><path d="M1436.39 551.49L1436.39 551.49" stroke="rgba(13, 35, 82, 1)" stroke-width="1.5"></path><path d="M1436.39 551.49L1556.26 560.83" stroke="rgba(13, 35, 82, 1)" stroke-width="1.5"></path><path d="M1436.39 551.49L1456.25 700.5" stroke="rgba(13, 35, 82, 1)" stroke-width="1.5"></path><path d="M1436.39 551.49L1284.98 664.48" stroke="rgba(13, 35, 82, 1)" stroke-width="1.5"></path><path d="M1436.39 551.49L1413.61 346.78" stroke="rgba(13, 35, 82, 1)" stroke-width="1.5"></path><path d="M1456.25 700.5L1456.25 700.5" stroke="rgba(13, 35, 82, 1)" stroke-width="1.5"></path><path d="M1456.25 700.5L1583.08 697.7" stroke="rgba(13, 35, 82, 1)" stroke-width="1.5"></path><path d="M1456.25 700.5L1430.08 856.56" stroke="rgba(13, 35, 82, 1)" stroke-width="1.5"></path><path d="M1456.25 700.5L1556.26 560.83" stroke="rgba(13, 35, 82, 1)" stroke-width="1.5"></path><path d="M1430.08 856.56L1430.08 856.56" stroke="rgba(13, 35, 82, 1)" stroke-width="1.5"></path><path d="M1607.97 -47.25L1607.97 -47.25" stroke="rgba(13, 35, 82, 1)" stroke-width="1.5"></path><path d="M1607.97 -47.25L1565.1 104.58" stroke="rgba(13, 35, 82, 1)" stroke-width="1.5"></path><path d="M1607.97 -47.25L1394.48 89.92" stroke="rgba(13, 35, 82, 1)" stroke-width="1.5"></path><path d="M1607.97 -47.25L1541.64 238.5" stroke="rgba(13, 35, 82, 1)" stroke-width="1.5"></path><path d="M1607.97 -47.25L1278.04 -46.53" stroke="rgba(13, 35, 82, 1)" stroke-width="1.5"></path><path d="M1607.97 -47.25L1427.99 229.66" stroke="rgba(13, 35, 82, 1)" stroke-width="1.5"></path><path d="M1607.97 -47.25L1570.22 379.9" stroke="rgba(13, 35, 82, 1)" stroke-width="1.5"></path><path d="M1565.1 104.58L1565.1 104.58" stroke="rgba(13, 35, 82, 1)" stroke-width="1.5"></path><path d="M1565.1 104.58L1541.64 238.5" stroke="rgba(13, 35, 82, 1)" stroke-width="1.5"></path><path d="M1541.64 238.5L1541.64 238.5" stroke="rgba(13, 35, 82, 1)" stroke-width="1.5"></path><path d="M1541.64 238.5L1570.22 379.9" stroke="rgba(13, 35, 82, 1)" stroke-width="1.5"></path><path d="M1541.64 238.5L1394.48 89.92" stroke="rgba(13, 35, 82, 1)" stroke-width="1.5"></path><path d="M1570.22 379.9L1570.22 379.9" stroke="rgba(13, 35, 82, 1)" stroke-width="1.5"></path><path d="M1570.22 379.9L1556.26 560.83" stroke="rgba(13, 35, 82, 1)" stroke-width="1.5"></path><path d="M1570.22 379.9L1427.99 229.66" stroke="rgba(13, 35, 82, 1)" stroke-width="1.5"></path><path d="M1556.26 560.83L1556.26 560.83" stroke="rgba(13, 35, 82, 1)" stroke-width="1.5"></path><path d="M1556.26 560.83L1583.08 697.7" stroke="rgba(13, 35, 82, 1)" stroke-width="1.5"></path><path d="M1583.08 697.7L1583.08 697.7" stroke="rgba(13, 35, 82, 1)" stroke-width="1.5"></path><path d="M1583.08 697.7L1436.39 551.49" stroke="rgba(13, 35, 82, 1)" stroke-width="1.5"></path><circle r="5" cx="-84.8" cy="516.41" fill="rgba(13, 35, 82, 1)"></circle><circle r="5" cx="-80.05" cy="648.95" fill="rgba(13, 35, 82, 1)"></circle><circle r="5" cx="-41.11" cy="838.43" fill="rgba(13, 35, 82, 1)"></circle><circle r="5" cx="104.21" cy="550.49" fill="rgba(13, 35, 82, 1)"></circle><circle r="5" cx="53.4" cy="638.01" fill="rgba(13, 35, 82, 1)"></circle><circle r="5" cx="111.8" cy="811.99" fill="rgba(13, 35, 82, 1)"></circle><circle r="5" cx="254.45" cy="488.97" fill="rgba(13, 35, 82, 1)"></circle><circle r="5" cx="191.13" cy="663.93" fill="rgba(13, 35, 82, 1)"></circle><circle r="5" cx="388.85" cy="403.07" fill="rgba(13, 35, 82, 1)"></circle><circle r="5" cx="341.74" cy="560.77" fill="rgba(13, 35, 82, 1)"></circle><circle r="5" cx="379.77" cy="656.44" fill="rgba(13, 35, 82, 1)"></circle><circle r="5" cx="349.93" cy="789.44" fill="rgba(13, 35, 82, 1)"></circle><circle r="5" cx="500.18" cy="492.86" fill="rgba(13, 35, 82, 1)"></circle><circle r="5" cx="547.75" cy="684.94" fill="rgba(13, 35, 82, 1)"></circle><circle r="5" cx="522.26" cy="790.64" fill="rgba(13, 35, 82, 1)"></circle><circle r="5" cx="662.52" cy="358.99" fill="rgba(13, 35, 82, 1)"></circle><circle r="5" cx="640.45" cy="495.14" fill="rgba(13, 35, 82, 1)"></circle><circle r="5" cx="682.26" cy="658.12" fill="rgba(13, 35, 82, 1)"></circle><circle r="5" cx="665.26" cy="821.34" fill="rgba(13, 35, 82, 1)"></circle><circle r="5" cx="797.04" cy="197.93" fill="rgba(13, 35, 82, 1)"></circle><circle r="5" cx="802.2" cy="340.13" fill="rgba(13, 35, 82, 1)"></circle><circle r="5" cx="820.32" cy="704.82" fill="rgba(13, 35, 82, 1)"></circle><circle r="5" cx="813.08" cy="837.48" fill="rgba(13, 35, 82, 1)"></circle><circle r="5" cx="944.45" cy="-111.45" fill="rgba(13, 35, 82, 1)"></circle><circle r="5" cx="1009.21" cy="91.53" fill="rgba(13, 35, 82, 1)"></circle><circle r="5" cx="944.64" cy="195.26" fill="rgba(13, 35, 82, 1)"></circle><circle r="5" cx="979.37" cy="359.11" fill="rgba(13, 35, 82, 1)"></circle><circle r="5" cx="993.92" cy="516.32" fill="rgba(13, 35, 82, 1)"></circle><circle r="5" cx="955.79" cy="683.86" fill="rgba(13, 35, 82, 1)"></circle><circle r="5" cx="947.53" cy="812.82" fill="rgba(13, 35, 82, 1)"></circle><circle r="5" cx="1151.53" cy="-39.75" fill="rgba(13, 35, 82, 1)"></circle><circle r="5" cx="1094.01" cy="81.18" fill="rgba(13, 35, 82, 1)"></circle><circle r="5" cx="1136.88" cy="202.29" fill="rgba(13, 35, 82, 1)"></circle><circle r="5" cx="1104.08" cy="388.37" fill="rgba(13, 35, 82, 1)"></circle><circle r="5" cx="1093.96" cy="501.17" fill="rgba(13, 35, 82, 1)"></circle><circle r="5" cx="1090.12" cy="790.26" fill="rgba(13, 35, 82, 1)"></circle><circle r="5" cx="1278.04" cy="-46.53" fill="rgba(13, 35, 82, 1)"></circle><circle r="5" cx="1253.87" cy="213.48" fill="rgba(13, 35, 82, 1)"></circle><circle r="5" cx="1267.91" cy="347.52" fill="rgba(13, 35, 82, 1)"></circle><circle r="5" cx="1274.13" cy="551.81" fill="rgba(13, 35, 82, 1)"></circle><circle r="5" cx="1284.98" cy="664.48" fill="rgba(13, 35, 82, 1)"></circle><circle r="5" cx="1269.87" cy="820.44" fill="rgba(13, 35, 82, 1)"></circle><circle r="5" cx="1394.48" cy="89.92" fill="rgba(13, 35, 82, 1)"></circle><circle r="5" cx="1427.99" cy="229.66" fill="rgba(13, 35, 82, 1)"></circle><circle r="5" cx="1413.61" cy="346.78" fill="rgba(13, 35, 82, 1)"></circle><circle r="5" cx="1436.39" cy="551.49" fill="rgba(13, 35, 82, 1)"></circle><circle r="5" cx="1456.25" cy="700.5" fill="rgba(13, 35, 82, 1)"></circle><circle r="5" cx="1430.08" cy="856.56" fill="rgba(13, 35, 82, 1)"></circle><circle r="5" cx="1607.97" cy="-47.25" fill="rgba(13, 35, 82, 1)"></circle><circle r="5" cx="1565.1" cy="104.58" fill="rgba(13, 35, 82, 1)"></circle><circle r="5" cx="1541.64" cy="238.5" fill="rgba(13, 35, 82, 1)"></circle><circle r="5" cx="1570.22" cy="379.9" fill="rgba(13, 35, 82, 1)"></circle><circle r="5" cx="1556.26" cy="560.83" fill="rgba(13, 35, 82, 1)"></circle><circle r="5" cx="1583.08" cy="697.7" fill="rgba(13, 35, 82, 1)"></circle><path d="M644.57 689.98L644.57 689.98" stroke="hsl(228.60000000000002, 88.7%, 58.9%)" stroke-width="1.5"></path><path d="M644.57 689.98L553.81 667.96" stroke="hsl(228.60000000000002, 88.7%, 58.9%)" stroke-width="1.5"></path><path d="M644.57 689.98L694.25 812.68" stroke="hsl(228.60000000000002, 88.7%, 58.9%)" stroke-width="1.5"></path><path d="M644.57 689.98L801.03 688.32" stroke="hsl(228.60000000000002, 88.7%, 58.9%)" stroke-width="1.5"></path><path d="M644.57 689.98L667.03 518.15" stroke="hsl(228.60000000000002, 88.7%, 58.9%)" stroke-width="1.5"></path><path d="M644.57 689.98L503.99 830.87" stroke="hsl(228.60000000000002, 88.7%, 58.9%)" stroke-width="1.5"></path><path d="M801.03 688.32L801.03 688.32" stroke="hsl(228.60000000000002, 88.7%, 58.9%)" stroke-width="1.5"></path><path d="M801.03 688.32L827.67 799.66" stroke="hsl(228.60000000000002, 88.7%, 58.9%)" stroke-width="1.5"></path><path d="M801.03 688.32L694.25 812.68" stroke="hsl(228.60000000000002, 88.7%, 58.9%)" stroke-width="1.5"></path><path d="M801.03 688.32L975.79 684.26" stroke="hsl(228.60000000000002, 88.7%, 58.9%)" stroke-width="1.5"></path><path d="M1416.04 43.74L1416.04 43.74" stroke="hsl(228.60000000000002, 88.7%, 58.9%)" stroke-width="1.5"></path><path d="M1416.04 43.74L1274.32 39.29" stroke="hsl(228.60000000000002, 88.7%, 58.9%)" stroke-width="1.5"></path><path d="M1416.04 43.74L1447.09 -102.82" stroke="hsl(228.60000000000002, 88.7%, 58.9%)" stroke-width="1.5"></path><path d="M1392.39 544.06L1392.39 544.06" stroke="hsl(228.60000000000002, 88.7%, 58.9%)" stroke-width="1.5"></path><path d="M1392.39 544.06L1287.86 546.23" stroke="hsl(228.60000000000002, 88.7%, 58.9%)" stroke-width="1.5"></path><path d="M1392.39 544.06L1421.55 691.53" stroke="hsl(228.60000000000002, 88.7%, 58.9%)" stroke-width="1.5"></path><path d="M-81.09 686.81L-81.09 686.81" stroke="hsl(228.60000000000002, 88.7%, 58.9%)" stroke-width="1.5"></path><path d="M-81.09 686.81L-87.26 830.52" stroke="hsl(228.60000000000002, 88.7%, 58.9%)" stroke-width="1.5"></path><path d="M-81.09 686.81L111.15 683.23" stroke="hsl(228.60000000000002, 88.7%, 58.9%)" stroke-width="1.5"></path><path d="M-81.09 686.81L105.79 810.37" stroke="hsl(228.60000000000002, 88.7%, 58.9%)" stroke-width="1.5"></path><path d="M-81.09 686.81L202.9 686.67" stroke="hsl(228.60000000000002, 88.7%, 58.9%)" stroke-width="1.5"></path><path d="M-87.26 830.52L-87.26 830.52" stroke="hsl(228.60000000000002, 88.7%, 58.9%)" stroke-width="1.5"></path><path d="M-87.26 830.52L105.79 810.37" stroke="hsl(228.60000000000002, 88.7%, 58.9%)" stroke-width="1.5"></path><path d="M-87.26 830.52L111.15 683.23" stroke="hsl(228.60000000000002, 88.7%, 58.9%)" stroke-width="1.5"></path><path d="M111.15 683.23L111.15 683.23" stroke="hsl(228.60000000000002, 88.7%, 58.9%)" stroke-width="1.5"></path><path d="M111.15 683.23L202.9 686.67" stroke="hsl(228.60000000000002, 88.7%, 58.9%)" stroke-width="1.5"></path><path d="M111.15 683.23L105.79 810.37" stroke="hsl(228.60000000000002, 88.7%, 58.9%)" stroke-width="1.5"></path><path d="M111.15 683.23L257.88 810.49" stroke="hsl(228.60000000000002, 88.7%, 58.9%)" stroke-width="1.5"></path><path d="M111.15 683.23L349.02 829.54" stroke="hsl(228.60000000000002, 88.7%, 58.9%)" stroke-width="1.5"></path><path d="M105.79 810.37L105.79 810.37" stroke="hsl(228.60000000000002, 88.7%, 58.9%)" stroke-width="1.5"></path><path d="M105.79 810.37L257.88 810.49" stroke="hsl(228.60000000000002, 88.7%, 58.9%)" stroke-width="1.5"></path><path d="M105.79 810.37L202.9 686.67" stroke="hsl(228.60000000000002, 88.7%, 58.9%)" stroke-width="1.5"></path><path d="M202.9 686.67L202.9 686.67" stroke="hsl(228.60000000000002, 88.7%, 58.9%)" stroke-width="1.5"></path><path d="M202.9 686.67L257.88 810.49" stroke="hsl(228.60000000000002, 88.7%, 58.9%)" stroke-width="1.5"></path><path d="M202.9 686.67L349.02 829.54" stroke="hsl(228.60000000000002, 88.7%, 58.9%)" stroke-width="1.5"></path><path d="M257.88 810.49L257.88 810.49" stroke="hsl(228.60000000000002, 88.7%, 58.9%)" stroke-width="1.5"></path><path d="M257.88 810.49L349.02 829.54" stroke="hsl(228.60000000000002, 88.7%, 58.9%)" stroke-width="1.5"></path><path d="M257.88 810.49L503.99 830.87" stroke="hsl(228.60000000000002, 88.7%, 58.9%)" stroke-width="1.5"></path><path d="M395.05 554.16L395.05 554.16" stroke="hsl(228.60000000000002, 88.7%, 58.9%)" stroke-width="1.5"></path><path d="M395.05 554.16L526.94 523.44" stroke="hsl(228.60000000000002, 88.7%, 58.9%)" stroke-width="1.5"></path><path d="M395.05 554.16L553.81 667.96" stroke="hsl(228.60000000000002, 88.7%, 58.9%)" stroke-width="1.5"></path><path d="M349.02 829.54L349.02 829.54" stroke="hsl(228.60000000000002, 88.7%, 58.9%)" stroke-width="1.5"></path><path d="M349.02 829.54L503.99 830.87" stroke="hsl(228.60000000000002, 88.7%, 58.9%)" stroke-width="1.5"></path><path d="M349.02 829.54L105.79 810.37" stroke="hsl(228.60000000000002, 88.7%, 58.9%)" stroke-width="1.5"></path><path d="M349.02 829.54L553.81 667.96" stroke="hsl(228.60000000000002, 88.7%, 58.9%)" stroke-width="1.5"></path><path d="M526.94 523.44L526.94 523.44" stroke="hsl(228.60000000000002, 88.7%, 58.9%)" stroke-width="1.5"></path><path d="M553.81 667.96L553.81 667.96" stroke="hsl(228.60000000000002, 88.7%, 58.9%)" stroke-width="1.5"></path><path d="M553.81 667.96L526.94 523.44" stroke="hsl(228.60000000000002, 88.7%, 58.9%)" stroke-width="1.5"></path><path d="M553.81 667.96L503.99 830.87" stroke="hsl(228.60000000000002, 88.7%, 58.9%)" stroke-width="1.5"></path><path d="M553.81 667.96L667.03 518.15" stroke="hsl(228.60000000000002, 88.7%, 58.9%)" stroke-width="1.5"></path><path d="M503.99 830.87L503.99 830.87" stroke="hsl(228.60000000000002, 88.7%, 58.9%)" stroke-width="1.5"></path><path d="M503.99 830.87L694.25 812.68" stroke="hsl(228.60000000000002, 88.7%, 58.9%)" stroke-width="1.5"></path><path d="M503.99 830.87L395.05 554.16" stroke="hsl(228.60000000000002, 88.7%, 58.9%)" stroke-width="1.5"></path><path d="M667.03 518.15L667.03 518.15" stroke="hsl(228.60000000000002, 88.7%, 58.9%)" stroke-width="1.5"></path><path d="M667.03 518.15L795.58 487.63" stroke="hsl(228.60000000000002, 88.7%, 58.9%)" stroke-width="1.5"></path><path d="M667.03 518.15L526.94 523.44" stroke="hsl(228.60000000000002, 88.7%, 58.9%)" stroke-width="1.5"></path><path d="M667.03 518.15L801.03 688.32" stroke="hsl(228.60000000000002, 88.7%, 58.9%)" stroke-width="1.5"></path><path d="M667.03 518.15L395.05 554.16" stroke="hsl(228.60000000000002, 88.7%, 58.9%)" stroke-width="1.5"></path><path d="M694.25 812.68L694.25 812.68" stroke="hsl(228.60000000000002, 88.7%, 58.9%)" stroke-width="1.5"></path><path d="M694.25 812.68L827.67 799.66" stroke="hsl(228.60000000000002, 88.7%, 58.9%)" stroke-width="1.5"></path><path d="M795.58 487.63L795.58 487.63" stroke="hsl(228.60000000000002, 88.7%, 58.9%)" stroke-width="1.5"></path><path d="M795.58 487.63L942.3 519.09" stroke="hsl(228.60000000000002, 88.7%, 58.9%)" stroke-width="1.5"></path><path d="M795.58 487.63L801.03 688.32" stroke="hsl(228.60000000000002, 88.7%, 58.9%)" stroke-width="1.5"></path><path d="M795.58 487.63L983.43 353.69" stroke="hsl(228.60000000000002, 88.7%, 58.9%)" stroke-width="1.5"></path><path d="M795.58 487.63L644.57 689.98" stroke="hsl(228.60000000000002, 88.7%, 58.9%)" stroke-width="1.5"></path><path d="M795.58 487.63L975.79 684.26" stroke="hsl(228.60000000000002, 88.7%, 58.9%)" stroke-width="1.5"></path><path d="M827.67 799.66L827.67 799.66" stroke="hsl(228.60000000000002, 88.7%, 58.9%)" stroke-width="1.5"></path><path d="M983.43 353.69L983.43 353.69" stroke="hsl(228.60000000000002, 88.7%, 58.9%)" stroke-width="1.5"></path><path d="M983.43 353.69L1117.26 376.52" stroke="hsl(228.60000000000002, 88.7%, 58.9%)" stroke-width="1.5"></path><path d="M983.43 353.69L942.3 519.09" stroke="hsl(228.60000000000002, 88.7%, 58.9%)" stroke-width="1.5"></path><path d="M983.43 353.69L1092.71 200.31" stroke="hsl(228.60000000000002, 88.7%, 58.9%)" stroke-width="1.5"></path><path d="M942.3 519.09L942.3 519.09" stroke="hsl(228.60000000000002, 88.7%, 58.9%)" stroke-width="1.5"></path><path d="M942.3 519.09L975.79 684.26" stroke="hsl(228.60000000000002, 88.7%, 58.9%)" stroke-width="1.5"></path><path d="M942.3 519.09L1120.69 543.44" stroke="hsl(228.60000000000002, 88.7%, 58.9%)" stroke-width="1.5"></path><path d="M942.3 519.09L801.03 688.32" stroke="hsl(228.60000000000002, 88.7%, 58.9%)" stroke-width="1.5"></path><path d="M975.79 684.26L975.79 684.26" stroke="hsl(228.60000000000002, 88.7%, 58.9%)" stroke-width="1.5"></path><path d="M975.79 684.26L1118.42 690.96" stroke="hsl(228.60000000000002, 88.7%, 58.9%)" stroke-width="1.5"></path><path d="M975.79 684.26L958.12 837.25" stroke="hsl(228.60000000000002, 88.7%, 58.9%)" stroke-width="1.5"></path><path d="M975.79 684.26L827.67 799.66" stroke="hsl(228.60000000000002, 88.7%, 58.9%)" stroke-width="1.5"></path><path d="M975.79 684.26L1120.69 543.44" stroke="hsl(228.60000000000002, 88.7%, 58.9%)" stroke-width="1.5"></path><path d="M958.12 837.25L958.12 837.25" stroke="hsl(228.60000000000002, 88.7%, 58.9%)" stroke-width="1.5"></path><path d="M958.12 837.25L827.67 799.66" stroke="hsl(228.60000000000002, 88.7%, 58.9%)" stroke-width="1.5"></path><path d="M958.12 837.25L801.03 688.32" stroke="hsl(228.60000000000002, 88.7%, 58.9%)" stroke-width="1.5"></path><path d="M958.12 837.25L1118.42 690.96" stroke="hsl(228.60000000000002, 88.7%, 58.9%)" stroke-width="1.5"></path><path d="M1145 92.77L1145 92.77" stroke="hsl(228.60000000000002, 88.7%, 58.9%)" stroke-width="1.5"></path><path d="M1145 92.77L1092.71 200.31" stroke="hsl(228.60000000000002, 88.7%, 58.9%)" stroke-width="1.5"></path><path d="M1145 92.77L1274.32 39.29" stroke="hsl(228.60000000000002, 88.7%, 58.9%)" stroke-width="1.5"></path><path d="M1145 92.77L1246.29 -71.23" stroke="hsl(228.60000000000002, 88.7%, 58.9%)" stroke-width="1.5"></path><path d="M1145 92.77L1308.86 203.03" stroke="hsl(228.60000000000002, 88.7%, 58.9%)" stroke-width="1.5"></path><path d="M1145 92.77L1416.04 43.74" stroke="hsl(228.60000000000002, 88.7%, 58.9%)" stroke-width="1.5"></path><path d="M1145 92.77L1117.26 376.52" stroke="hsl(228.60000000000002, 88.7%, 58.9%)" stroke-width="1.5"></path><path d="M1092.71 200.31L1092.71 200.31" stroke="hsl(228.60000000000002, 88.7%, 58.9%)" stroke-width="1.5"></path><path d="M1092.71 200.31L1117.26 376.52" stroke="hsl(228.60000000000002, 88.7%, 58.9%)" stroke-width="1.5"></path><path d="M1092.71 200.31L1308.86 203.03" stroke="hsl(228.60000000000002, 88.7%, 58.9%)" stroke-width="1.5"></path><path d="M1092.71 200.31L1274.32 39.29" stroke="hsl(228.60000000000002, 88.7%, 58.9%)" stroke-width="1.5"></path><path d="M1117.26 376.52L1117.26 376.52" stroke="hsl(228.60000000000002, 88.7%, 58.9%)" stroke-width="1.5"></path><path d="M1117.26 376.52L1120.69 543.44" stroke="hsl(228.60000000000002, 88.7%, 58.9%)" stroke-width="1.5"></path><path d="M1117.26 376.52L1291.46 381.63" stroke="hsl(228.60000000000002, 88.7%, 58.9%)" stroke-width="1.5"></path><path d="M1120.69 543.44L1120.69 543.44" stroke="hsl(228.60000000000002, 88.7%, 58.9%)" stroke-width="1.5"></path><path d="M1120.69 543.44L1118.42 690.96" stroke="hsl(228.60000000000002, 88.7%, 58.9%)" stroke-width="1.5"></path><path d="M1120.69 543.44L1287.86 546.23" stroke="hsl(228.60000000000002, 88.7%, 58.9%)" stroke-width="1.5"></path><path d="M1118.42 690.96L1118.42 690.96" stroke="hsl(228.60000000000002, 88.7%, 58.9%)" stroke-width="1.5"></path><path d="M1118.42 690.96L1275.67 678.18" stroke="hsl(228.60000000000002, 88.7%, 58.9%)" stroke-width="1.5"></path><path d="M1246.29 -71.23L1246.29 -71.23" stroke="hsl(228.60000000000002, 88.7%, 58.9%)" stroke-width="1.5"></path><path d="M1246.29 -71.23L1274.32 39.29" stroke="hsl(228.60000000000002, 88.7%, 58.9%)" stroke-width="1.5"></path><path d="M1274.32 39.29L1274.32 39.29" stroke="hsl(228.60000000000002, 88.7%, 58.9%)" stroke-width="1.5"></path><path d="M1274.32 39.29L1308.86 203.03" stroke="hsl(228.60000000000002, 88.7%, 58.9%)" stroke-width="1.5"></path><path d="M1274.32 39.29L1447.09 -102.82" stroke="hsl(228.60000000000002, 88.7%, 58.9%)" stroke-width="1.5"></path><path d="M1308.86 203.03L1308.86 203.03" stroke="hsl(228.60000000000002, 88.7%, 58.9%)" stroke-width="1.5"></path><path d="M1308.86 203.03L1414.71 219.68" stroke="hsl(228.60000000000002, 88.7%, 58.9%)" stroke-width="1.5"></path><path d="M1308.86 203.03L1291.46 381.63" stroke="hsl(228.60000000000002, 88.7%, 58.9%)" stroke-width="1.5"></path><path d="M1291.46 381.63L1291.46 381.63" stroke="hsl(228.60000000000002, 88.7%, 58.9%)" stroke-width="1.5"></path><path d="M1291.46 381.63L1401.77 376.93" stroke="hsl(228.60000000000002, 88.7%, 58.9%)" stroke-width="1.5"></path><path d="M1291.46 381.63L1287.86 546.23" stroke="hsl(228.60000000000002, 88.7%, 58.9%)" stroke-width="1.5"></path><path d="M1287.86 546.23L1287.86 546.23" stroke="hsl(228.60000000000002, 88.7%, 58.9%)" stroke-width="1.5"></path><path d="M1287.86 546.23L1275.67 678.18" stroke="hsl(228.60000000000002, 88.7%, 58.9%)" stroke-width="1.5"></path><path d="M1287.86 546.23L1421.55 691.53" stroke="hsl(228.60000000000002, 88.7%, 58.9%)" stroke-width="1.5"></path><path d="M1275.67 678.18L1275.67 678.18" stroke="hsl(228.60000000000002, 88.7%, 58.9%)" stroke-width="1.5"></path><path d="M1275.67 678.18L1304.31 796.56" stroke="hsl(228.60000000000002, 88.7%, 58.9%)" stroke-width="1.5"></path><path d="M1275.67 678.18L1421.55 691.53" stroke="hsl(228.60000000000002, 88.7%, 58.9%)" stroke-width="1.5"></path><path d="M1275.67 678.18L1392.39 544.06" stroke="hsl(228.60000000000002, 88.7%, 58.9%)" stroke-width="1.5"></path><path d="M1275.67 678.18L1120.69 543.44" stroke="hsl(228.60000000000002, 88.7%, 58.9%)" stroke-width="1.5"></path><path d="M1304.31 796.56L1304.31 796.56" stroke="hsl(228.60000000000002, 88.7%, 58.9%)" stroke-width="1.5"></path><path d="M1304.31 796.56L1453.98 821.13" stroke="hsl(228.60000000000002, 88.7%, 58.9%)" stroke-width="1.5"></path><path d="M1304.31 796.56L1421.55 691.53" stroke="hsl(228.60000000000002, 88.7%, 58.9%)" stroke-width="1.5"></path><path d="M1304.31 796.56L1118.42 690.96" stroke="hsl(228.60000000000002, 88.7%, 58.9%)" stroke-width="1.5"></path><path d="M1304.31 796.56L1287.86 546.23" stroke="hsl(228.60000000000002, 88.7%, 58.9%)" stroke-width="1.5"></path><path d="M1304.31 796.56L1392.39 544.06" stroke="hsl(228.60000000000002, 88.7%, 58.9%)" stroke-width="1.5"></path><path d="M1447.09 -102.82L1447.09 -102.82" stroke="hsl(228.60000000000002, 88.7%, 58.9%)" stroke-width="1.5"></path><path d="M1447.09 -102.82L1571.77 -86.39" stroke="hsl(228.60000000000002, 88.7%, 58.9%)" stroke-width="1.5"></path><path d="M1414.71 219.68L1414.71 219.68" stroke="hsl(228.60000000000002, 88.7%, 58.9%)" stroke-width="1.5"></path><path d="M1414.71 219.68L1401.77 376.93" stroke="hsl(228.60000000000002, 88.7%, 58.9%)" stroke-width="1.5"></path><path d="M1414.71 219.68L1416.04 43.74" stroke="hsl(228.60000000000002, 88.7%, 58.9%)" stroke-width="1.5"></path><path d="M1414.71 219.68L1609.23 209.13" stroke="hsl(228.60000000000002, 88.7%, 58.9%)" stroke-width="1.5"></path><path d="M1414.71 219.68L1291.46 381.63" stroke="hsl(228.60000000000002, 88.7%, 58.9%)" stroke-width="1.5"></path><path d="M1414.71 219.68L1274.32 39.29" stroke="hsl(228.60000000000002, 88.7%, 58.9%)" stroke-width="1.5"></path><path d="M1401.77 376.93L1401.77 376.93" stroke="hsl(228.60000000000002, 88.7%, 58.9%)" stroke-width="1.5"></path><path d="M1401.77 376.93L1392.39 544.06" stroke="hsl(228.60000000000002, 88.7%, 58.9%)" stroke-width="1.5"></path><path d="M1401.77 376.93L1591.09 411.7" stroke="hsl(228.60000000000002, 88.7%, 58.9%)" stroke-width="1.5"></path><path d="M1401.77 376.93L1308.86 203.03" stroke="hsl(228.60000000000002, 88.7%, 58.9%)" stroke-width="1.5"></path><path d="M1421.55 691.53L1421.55 691.53" stroke="hsl(228.60000000000002, 88.7%, 58.9%)" stroke-width="1.5"></path><path d="M1421.55 691.53L1453.98 821.13" stroke="hsl(228.60000000000002, 88.7%, 58.9%)" stroke-width="1.5"></path><path d="M1453.98 821.13L1453.98 821.13" stroke="hsl(228.60000000000002, 88.7%, 58.9%)" stroke-width="1.5"></path><path d="M1453.98 821.13L1603.42 680.4" stroke="hsl(228.60000000000002, 88.7%, 58.9%)" stroke-width="1.5"></path><path d="M1453.98 821.13L1275.67 678.18" stroke="hsl(228.60000000000002, 88.7%, 58.9%)" stroke-width="1.5"></path><path d="M1571.77 -86.39L1571.77 -86.39" stroke="hsl(228.60000000000002, 88.7%, 58.9%)" stroke-width="1.5"></path><path d="M1571.77 -86.39L1609.04 68.15" stroke="hsl(228.60000000000002, 88.7%, 58.9%)" stroke-width="1.5"></path><path d="M1609.04 68.15L1609.04 68.15" stroke="hsl(228.60000000000002, 88.7%, 58.9%)" stroke-width="1.5"></path><path d="M1609.04 68.15L1609.23 209.13" stroke="hsl(228.60000000000002, 88.7%, 58.9%)" stroke-width="1.5"></path><path d="M1609.04 68.15L1416.04 43.74" stroke="hsl(228.60000000000002, 88.7%, 58.9%)" stroke-width="1.5"></path><path d="M1609.04 68.15L1447.09 -102.82" stroke="hsl(228.60000000000002, 88.7%, 58.9%)" stroke-width="1.5"></path><path d="M1609.04 68.15L1414.71 219.68" stroke="hsl(228.60000000000002, 88.7%, 58.9%)" stroke-width="1.5"></path><path d="M1609.23 209.13L1609.23 209.13" stroke="hsl(228.60000000000002, 88.7%, 58.9%)" stroke-width="1.5"></path><path d="M1591.09 411.7L1591.09 411.7" stroke="hsl(228.60000000000002, 88.7%, 58.9%)" stroke-width="1.5"></path><path d="M1591.09 411.7L1581.55 536.87" stroke="hsl(228.60000000000002, 88.7%, 58.9%)" stroke-width="1.5"></path><path d="M1591.09 411.7L1609.23 209.13" stroke="hsl(228.60000000000002, 88.7%, 58.9%)" stroke-width="1.5"></path><path d="M1591.09 411.7L1392.39 544.06" stroke="hsl(228.60000000000002, 88.7%, 58.9%)" stroke-width="1.5"></path><path d="M1591.09 411.7L1414.71 219.68" stroke="hsl(228.60000000000002, 88.7%, 58.9%)" stroke-width="1.5"></path><path d="M1581.55 536.87L1581.55 536.87" stroke="hsl(228.60000000000002, 88.7%, 58.9%)" stroke-width="1.5"></path><path d="M1581.55 536.87L1603.42 680.4" stroke="hsl(228.60000000000002, 88.7%, 58.9%)" stroke-width="1.5"></path><path d="M1603.42 680.4L1603.42 680.4" stroke="hsl(228.60000000000002, 88.7%, 58.9%)" stroke-width="1.5"></path><path d="M1603.42 680.4L1421.55 691.53" stroke="hsl(228.60000000000002, 88.7%, 58.9%)" stroke-width="1.5"></path><path d="M1603.42 680.4L1392.39 544.06" stroke="hsl(228.60000000000002, 88.7%, 58.9%)" stroke-width="1.5"></path><path d="M1603.42 680.4L1591.09 411.7" stroke="hsl(228.60000000000002, 88.7%, 58.9%)" stroke-width="1.5"></path><circle r="25" cx="644.57" cy="689.98" fill="url(&quot;#SvgjsRadialGradient1485&quot;)"></circle><circle r="25" cx="801.03" cy="688.32" fill="url(&quot;#SvgjsRadialGradient1485&quot;)"></circle><circle r="25" cx="1416.04" cy="43.74" fill="url(&quot;#SvgjsRadialGradient1485&quot;)"></circle><circle r="25" cx="1392.39" cy="544.06" fill="url(&quot;#SvgjsRadialGradient1485&quot;)"></circle><circle r="5" cx="-81.09" cy="686.81" fill="#869aed"></circle><circle r="5" cx="-87.26" cy="830.52" fill="#869aed"></circle><circle r="5" cx="111.15" cy="683.23" fill="#869aed"></circle><circle r="5" cx="105.79" cy="810.37" fill="#869aed"></circle><circle r="5" cx="202.9" cy="686.67" fill="#869aed"></circle><circle r="5" cx="257.88" cy="810.49" fill="#869aed"></circle><circle r="5" cx="395.05" cy="554.16" fill="#869aed"></circle><circle r="5" cx="349.02" cy="829.54" fill="#869aed"></circle><circle r="5" cx="526.94" cy="523.44" fill="#869aed"></circle><circle r="5" cx="553.81" cy="667.96" fill="#869aed"></circle><circle r="5" cx="503.99" cy="830.87" fill="#869aed"></circle><circle r="5" cx="667.03" cy="518.15" fill="#869aed"></circle><circle r="5" cx="694.25" cy="812.68" fill="#869aed"></circle><circle r="5" cx="795.58" cy="487.63" fill="#869aed"></circle><circle r="5" cx="827.67" cy="799.66" fill="#869aed"></circle><circle r="5" cx="983.43" cy="353.69" fill="#869aed"></circle><circle r="5" cx="942.3" cy="519.09" fill="#869aed"></circle><circle r="5" cx="975.79" cy="684.26" fill="#869aed"></circle><circle r="5" cx="958.12" cy="837.25" fill="#869aed"></circle><circle r="5" cx="1145" cy="92.77" fill="#869aed"></circle><circle r="5" cx="1092.71" cy="200.31" fill="#869aed"></circle><circle r="5" cx="1117.26" cy="376.52" fill="#869aed"></circle><circle r="5" cx="1120.69" cy="543.44" fill="#869aed"></circle><circle r="5" cx="1118.42" cy="690.96" fill="#869aed"></circle><circle r="5" cx="1246.29" cy="-71.23" fill="#869aed"></circle><circle r="5" cx="1274.32" cy="39.29" fill="#869aed"></circle><circle r="5" cx="1308.86" cy="203.03" fill="#869aed"></circle><circle r="5" cx="1291.46" cy="381.63" fill="#869aed"></circle><circle r="5" cx="1287.86" cy="546.23" fill="#869aed"></circle><circle r="5" cx="1275.67" cy="678.18" fill="#869aed"></circle><circle r="5" cx="1304.31" cy="796.56" fill="#869aed"></circle><circle r="5" cx="1447.09" cy="-102.82" fill="#869aed"></circle><circle r="5" cx="1414.71" cy="219.68" fill="#869aed"></circle><circle r="5" cx="1401.77" cy="376.93" fill="#869aed"></circle><circle r="5" cx="1421.55" cy="691.53" fill="#869aed"></circle><circle r="5" cx="1453.98" cy="821.13" fill="#869aed"></circle><circle r="5" cx="1571.77" cy="-86.39" fill="#869aed"></circle><circle r="5" cx="1609.04" cy="68.15" fill="#869aed"></circle><circle r="5" cx="1609.23" cy="209.13" fill="#869aed"></circle><circle r="5" cx="1591.09" cy="411.7" fill="#869aed"></circle><circle r="5" cx="1581.55" cy="536.87" fill="#869aed"></circle><circle r="5" cx="1603.42" cy="680.4" fill="#869aed"></circle></g><defs><mask id="SvgjsMask1483"><rect width="1440" height="720" fill="#ffffff"></rect></mask><linearGradient x1="12.5%" y1="125%" x2="87.5%" y2="-25%" gradientUnits="userSpaceOnUse" id="SvgjsLinearGradient1484"><stop stop-color="#0e2a47" offset="0"></stop><stop stop-color="rgba(0, 0, 0, 1)" offset="1"></stop></linearGradient><radialGradient id="SvgjsRadialGradient1485"><stop stop-color="#ffffff" offset="0.1"></stop><stop stop-color="rgba(13, 52, 218, 1)" offset="0.2"></stop><stop stop-color="rgba(13, 52, 218, 0)" offset="1"></stop></radialGradient></defs></svg>