<svg xmlns="http://www.w3.org/2000/svg" version="1.1" xmlns:xlink="http://www.w3.org/1999/xlink" xmlns:svgjs="http://svgjs.dev/svgjs" width="1440" height="720" preserveAspectRatio="none" viewBox="0 0 1440 720"><g mask="url(&quot;#SvgjsMask1670&quot;)" fill="none"><rect width="1440" height="720" x="0" y="0" fill="rgba(239, 247, 255, 1)"></rect><path d="M-98.21 513.14L-98.21 513.14" stroke="rgba(159, 199, 232, 1)" stroke-width="1.5"></path><path d="M-98.21 513.14L-88.62 700.21" stroke="rgba(159, 199, 232, 1)" stroke-width="1.5"></path><path d="M-98.21 513.14L108.63 490.94" stroke="rgba(159, 199, 232, 1)" stroke-width="1.5"></path><path d="M-98.21 513.14L-91.93 837.27" stroke="rgba(159, 199, 232, 1)" stroke-width="1.5"></path><path d="M-88.62 700.21L-88.62 700.21" stroke="rgba(159, 199, 232, 1)" stroke-width="1.5"></path><path d="M-88.62 700.21L-91.93 837.27" stroke="rgba(159, 199, 232, 1)" stroke-width="1.5"></path><path d="M-91.93 837.27L-91.93 837.27" stroke="rgba(159, 199, 232, 1)" stroke-width="1.5"></path><path d="M-91.93 837.27L200.36 796.7" stroke="rgba(159, 199, 232, 1)" stroke-width="1.5"></path><path d="M-91.93 837.27L201.34 666.09" stroke="rgba(159, 199, 232, 1)" stroke-width="1.5"></path><path d="M-91.93 837.27L108.63 490.94" stroke="rgba(159, 199, 232, 1)" stroke-width="1.5"></path><path d="M108.63 490.94L108.63 490.94" stroke="rgba(159, 199, 232, 1)" stroke-width="1.5"></path><path d="M108.63 490.94L231.05 560.06" stroke="rgba(159, 199, 232, 1)" stroke-width="1.5"></path><path d="M108.63 490.94L201.34 666.09" stroke="rgba(159, 199, 232, 1)" stroke-width="1.5"></path><path d="M231.05 560.06L231.05 560.06" stroke="rgba(159, 199, 232, 1)" stroke-width="1.5"></path><path d="M231.05 560.06L201.34 666.09" stroke="rgba(159, 199, 232, 1)" stroke-width="1.5"></path><path d="M231.05 560.06L392.8 515.92" stroke="rgba(159, 199, 232, 1)" stroke-width="1.5"></path><path d="M231.05 560.06L392.76 670.49" stroke="rgba(159, 199, 232, 1)" stroke-width="1.5"></path><path d="M231.05 560.06L200.36 796.7" stroke="rgba(159, 199, 232, 1)" stroke-width="1.5"></path><path d="M201.34 666.09L201.34 666.09" stroke="rgba(159, 199, 232, 1)" stroke-width="1.5"></path><path d="M201.34 666.09L200.36 796.7" stroke="rgba(159, 199, 232, 1)" stroke-width="1.5"></path><path d="M201.34 666.09L392.76 670.49" stroke="rgba(159, 199, 232, 1)" stroke-width="1.5"></path><path d="M201.34 666.09L339.51 833.4" stroke="rgba(159, 199, 232, 1)" stroke-width="1.5"></path><path d="M201.34 666.09L392.8 515.92" stroke="rgba(159, 199, 232, 1)" stroke-width="1.5"></path><path d="M200.36 796.7L200.36 796.7" stroke="rgba(159, 199, 232, 1)" stroke-width="1.5"></path><path d="M200.36 796.7L339.51 833.4" stroke="rgba(159, 199, 232, 1)" stroke-width="1.5"></path><path d="M200.36 796.7L392.76 670.49" stroke="rgba(159, 199, 232, 1)" stroke-width="1.5"></path><path d="M392.8 515.92L392.8 515.92" stroke="rgba(159, 199, 232, 1)" stroke-width="1.5"></path><path d="M392.8 515.92L536.39 516.91" stroke="rgba(159, 199, 232, 1)" stroke-width="1.5"></path><path d="M392.8 515.92L392.76 670.49" stroke="rgba(159, 199, 232, 1)" stroke-width="1.5"></path><path d="M392.76 670.49L392.76 670.49" stroke="rgba(159, 199, 232, 1)" stroke-width="1.5"></path><path d="M392.76 670.49L513.33 662.17" stroke="rgba(159, 199, 232, 1)" stroke-width="1.5"></path><path d="M392.76 670.49L339.51 833.4" stroke="rgba(159, 199, 232, 1)" stroke-width="1.5"></path><path d="M339.51 833.4L339.51 833.4" stroke="rgba(159, 199, 232, 1)" stroke-width="1.5"></path><path d="M339.51 833.4L559.89 827.38" stroke="rgba(159, 199, 232, 1)" stroke-width="1.5"></path><path d="M500.18 377.11L500.18 377.11" stroke="rgba(159, 199, 232, 1)" stroke-width="1.5"></path><path d="M500.18 377.11L536.39 516.91" stroke="rgba(159, 199, 232, 1)" stroke-width="1.5"></path><path d="M536.39 516.91L536.39 516.91" stroke="rgba(159, 199, 232, 1)" stroke-width="1.5"></path><path d="M536.39 516.91L639.52 521.45" stroke="rgba(159, 199, 232, 1)" stroke-width="1.5"></path><path d="M536.39 516.91L513.33 662.17" stroke="rgba(159, 199, 232, 1)" stroke-width="1.5"></path><path d="M536.39 516.91L657.77 397.34" stroke="rgba(159, 199, 232, 1)" stroke-width="1.5"></path><path d="M536.39 516.91L392.76 670.49" stroke="rgba(159, 199, 232, 1)" stroke-width="1.5"></path><path d="M513.33 662.17L513.33 662.17" stroke="rgba(159, 199, 232, 1)" stroke-width="1.5"></path><path d="M559.89 827.38L559.89 827.38" stroke="rgba(159, 199, 232, 1)" stroke-width="1.5"></path><path d="M559.89 827.38L688.95 815.89" stroke="rgba(159, 199, 232, 1)" stroke-width="1.5"></path><path d="M559.89 827.38L513.33 662.17" stroke="rgba(159, 199, 232, 1)" stroke-width="1.5"></path><path d="M657.77 397.34L657.77 397.34" stroke="rgba(159, 199, 232, 1)" stroke-width="1.5"></path><path d="M657.77 397.34L639.52 521.45" stroke="rgba(159, 199, 232, 1)" stroke-width="1.5"></path><path d="M657.77 397.34L812.17 398.93" stroke="rgba(159, 199, 232, 1)" stroke-width="1.5"></path><path d="M657.77 397.34L500.18 377.11" stroke="rgba(159, 199, 232, 1)" stroke-width="1.5"></path><path d="M657.77 397.34L790.76 550.84" stroke="rgba(159, 199, 232, 1)" stroke-width="1.5"></path><path d="M639.52 521.45L639.52 521.45" stroke="rgba(159, 199, 232, 1)" stroke-width="1.5"></path><path d="M639.52 521.45L694.22 657.12" stroke="rgba(159, 199, 232, 1)" stroke-width="1.5"></path><path d="M639.52 521.45L790.76 550.84" stroke="rgba(159, 199, 232, 1)" stroke-width="1.5"></path><path d="M639.52 521.45L513.33 662.17" stroke="rgba(159, 199, 232, 1)" stroke-width="1.5"></path><path d="M694.22 657.12L694.22 657.12" stroke="rgba(159, 199, 232, 1)" stroke-width="1.5"></path><path d="M694.22 657.12L807.97 709.74" stroke="rgba(159, 199, 232, 1)" stroke-width="1.5"></path><path d="M694.22 657.12L790.76 550.84" stroke="rgba(159, 199, 232, 1)" stroke-width="1.5"></path><path d="M688.95 815.89L688.95 815.89" stroke="rgba(159, 199, 232, 1)" stroke-width="1.5"></path><path d="M836.52 227.9L836.52 227.9" stroke="rgba(159, 199, 232, 1)" stroke-width="1.5"></path><path d="M836.52 227.9L988.8 232.79" stroke="rgba(159, 199, 232, 1)" stroke-width="1.5"></path><path d="M836.52 227.9L812.17 398.93" stroke="rgba(159, 199, 232, 1)" stroke-width="1.5"></path><path d="M836.52 227.9L971.24 94.66" stroke="rgba(159, 199, 232, 1)" stroke-width="1.5"></path><path d="M836.52 227.9L938.43 399.65" stroke="rgba(159, 199, 232, 1)" stroke-width="1.5"></path><path d="M836.52 227.9L657.77 397.34" stroke="rgba(159, 199, 232, 1)" stroke-width="1.5"></path><path d="M812.17 398.93L812.17 398.93" stroke="rgba(159, 199, 232, 1)" stroke-width="1.5"></path><path d="M812.17 398.93L938.43 399.65" stroke="rgba(159, 199, 232, 1)" stroke-width="1.5"></path><path d="M812.17 398.93L790.76 550.84" stroke="rgba(159, 199, 232, 1)" stroke-width="1.5"></path><path d="M812.17 398.93L639.52 521.45" stroke="rgba(159, 199, 232, 1)" stroke-width="1.5"></path><path d="M812.17 398.93L973.67 540.42" stroke="rgba(159, 199, 232, 1)" stroke-width="1.5"></path><path d="M790.76 550.84L790.76 550.84" stroke="rgba(159, 199, 232, 1)" stroke-width="1.5"></path><path d="M790.76 550.84L807.97 709.74" stroke="rgba(159, 199, 232, 1)" stroke-width="1.5"></path><path d="M790.76 550.84L973.67 540.42" stroke="rgba(159, 199, 232, 1)" stroke-width="1.5"></path><path d="M807.97 709.74L807.97 709.74" stroke="rgba(159, 199, 232, 1)" stroke-width="1.5"></path><path d="M807.97 709.74L857.26 832.04" stroke="rgba(159, 199, 232, 1)" stroke-width="1.5"></path><path d="M807.97 709.74L688.95 815.89" stroke="rgba(159, 199, 232, 1)" stroke-width="1.5"></path><path d="M857.26 832.04L857.26 832.04" stroke="rgba(159, 199, 232, 1)" stroke-width="1.5"></path><path d="M857.26 832.04L944.42 819.14" stroke="rgba(159, 199, 232, 1)" stroke-width="1.5"></path><path d="M857.26 832.04L688.95 815.89" stroke="rgba(159, 199, 232, 1)" stroke-width="1.5"></path><path d="M967.84 -105.41L967.84 -105.41" stroke="rgba(159, 199, 232, 1)" stroke-width="1.5"></path><path d="M967.84 -105.41L1161.19 -108.42" stroke="rgba(159, 199, 232, 1)" stroke-width="1.5"></path><path d="M967.84 -105.41L971.24 94.66" stroke="rgba(159, 199, 232, 1)" stroke-width="1.5"></path><path d="M967.84 -105.41L1121.85 47.65" stroke="rgba(159, 199, 232, 1)" stroke-width="1.5"></path><path d="M967.84 -105.41L1262.27 -41.99" stroke="rgba(159, 199, 232, 1)" stroke-width="1.5"></path><path d="M967.84 -105.41L988.8 232.79" stroke="rgba(159, 199, 232, 1)" stroke-width="1.5"></path><path d="M967.84 -105.41L1137.87 200.96" stroke="rgba(159, 199, 232, 1)" stroke-width="1.5"></path><path d="M971.24 94.66L971.24 94.66" stroke="rgba(159, 199, 232, 1)" stroke-width="1.5"></path><path d="M971.24 94.66L988.8 232.79" stroke="rgba(159, 199, 232, 1)" stroke-width="1.5"></path><path d="M971.24 94.66L1121.85 47.65" stroke="rgba(159, 199, 232, 1)" stroke-width="1.5"></path><path d="M971.24 94.66L1137.87 200.96" stroke="rgba(159, 199, 232, 1)" stroke-width="1.5"></path><path d="M971.24 94.66L1161.19 -108.42" stroke="rgba(159, 199, 232, 1)" stroke-width="1.5"></path><path d="M988.8 232.79L988.8 232.79" stroke="rgba(159, 199, 232, 1)" stroke-width="1.5"></path><path d="M988.8 232.79L1137.87 200.96" stroke="rgba(159, 199, 232, 1)" stroke-width="1.5"></path><path d="M938.43 399.65L938.43 399.65" stroke="rgba(159, 199, 232, 1)" stroke-width="1.5"></path><path d="M938.43 399.65L973.67 540.42" stroke="rgba(159, 199, 232, 1)" stroke-width="1.5"></path><path d="M938.43 399.65L988.8 232.79" stroke="rgba(159, 199, 232, 1)" stroke-width="1.5"></path><path d="M938.43 399.65L790.76 550.84" stroke="rgba(159, 199, 232, 1)" stroke-width="1.5"></path><path d="M973.67 540.42L973.67 540.42" stroke="rgba(159, 199, 232, 1)" stroke-width="1.5"></path><path d="M973.67 540.42L1005.89 679.12" stroke="rgba(159, 199, 232, 1)" stroke-width="1.5"></path><path d="M973.67 540.42L1137.47 535.42" stroke="rgba(159, 199, 232, 1)" stroke-width="1.5"></path><path d="M973.67 540.42L1146.72 655.85" stroke="rgba(159, 199, 232, 1)" stroke-width="1.5"></path><path d="M1005.89 679.12L1005.89 679.12" stroke="rgba(159, 199, 232, 1)" stroke-width="1.5"></path><path d="M1005.89 679.12L1146.72 655.85" stroke="rgba(159, 199, 232, 1)" stroke-width="1.5"></path><path d="M1005.89 679.12L944.42 819.14" stroke="rgba(159, 199, 232, 1)" stroke-width="1.5"></path><path d="M1005.89 679.12L1108.54 825.4" stroke="rgba(159, 199, 232, 1)" stroke-width="1.5"></path><path d="M944.42 819.14L944.42 819.14" stroke="rgba(159, 199, 232, 1)" stroke-width="1.5"></path><path d="M944.42 819.14L1108.54 825.4" stroke="rgba(159, 199, 232, 1)" stroke-width="1.5"></path><path d="M944.42 819.14L807.97 709.74" stroke="rgba(159, 199, 232, 1)" stroke-width="1.5"></path><path d="M944.42 819.14L688.95 815.89" stroke="rgba(159, 199, 232, 1)" stroke-width="1.5"></path><path d="M1161.19 -108.42L1161.19 -108.42" stroke="rgba(159, 199, 232, 1)" stroke-width="1.5"></path><path d="M1161.19 -108.42L1262.27 -41.99" stroke="rgba(159, 199, 232, 1)" stroke-width="1.5"></path><path d="M1161.19 -108.42L1121.85 47.65" stroke="rgba(159, 199, 232, 1)" stroke-width="1.5"></path><path d="M1121.85 47.65L1121.85 47.65" stroke="rgba(159, 199, 232, 1)" stroke-width="1.5"></path><path d="M1121.85 47.65L1137.87 200.96" stroke="rgba(159, 199, 232, 1)" stroke-width="1.5"></path><path d="M1137.87 200.96L1137.87 200.96" stroke="rgba(159, 199, 232, 1)" stroke-width="1.5"></path><path d="M1137.87 200.96L1158.58 365.17" stroke="rgba(159, 199, 232, 1)" stroke-width="1.5"></path><path d="M1158.58 365.17L1158.58 365.17" stroke="rgba(159, 199, 232, 1)" stroke-width="1.5"></path><path d="M1158.58 365.17L1275.31 388.6" stroke="rgba(159, 199, 232, 1)" stroke-width="1.5"></path><path d="M1158.58 365.17L1245.12 493.65" stroke="rgba(159, 199, 232, 1)" stroke-width="1.5"></path><path d="M1158.58 365.17L1137.47 535.42" stroke="rgba(159, 199, 232, 1)" stroke-width="1.5"></path><path d="M1158.58 365.17L1305.58 236.68" stroke="rgba(159, 199, 232, 1)" stroke-width="1.5"></path><path d="M1158.58 365.17L988.8 232.79" stroke="rgba(159, 199, 232, 1)" stroke-width="1.5"></path><path d="M1137.47 535.42L1137.47 535.42" stroke="rgba(159, 199, 232, 1)" stroke-width="1.5"></path><path d="M1137.47 535.42L1245.12 493.65" stroke="rgba(159, 199, 232, 1)" stroke-width="1.5"></path><path d="M1137.47 535.42L1146.72 655.85" stroke="rgba(159, 199, 232, 1)" stroke-width="1.5"></path><path d="M1146.72 655.85L1146.72 655.85" stroke="rgba(159, 199, 232, 1)" stroke-width="1.5"></path><path d="M1146.72 655.85L1309.81 667.27" stroke="rgba(159, 199, 232, 1)" stroke-width="1.5"></path><path d="M1108.54 825.4L1108.54 825.4" stroke="rgba(159, 199, 232, 1)" stroke-width="1.5"></path><path d="M1108.54 825.4L1279 801.27" stroke="rgba(159, 199, 232, 1)" stroke-width="1.5"></path><path d="M1108.54 825.4L1146.72 655.85" stroke="rgba(159, 199, 232, 1)" stroke-width="1.5"></path><path d="M1262.27 -41.99L1262.27 -41.99" stroke="rgba(159, 199, 232, 1)" stroke-width="1.5"></path><path d="M1262.27 -41.99L1295.61 61.15" stroke="rgba(159, 199, 232, 1)" stroke-width="1.5"></path><path d="M1295.61 61.15L1295.61 61.15" stroke="rgba(159, 199, 232, 1)" stroke-width="1.5"></path><path d="M1295.61 61.15L1428.37 82.8" stroke="rgba(159, 199, 232, 1)" stroke-width="1.5"></path><path d="M1295.61 61.15L1121.85 47.65" stroke="rgba(159, 199, 232, 1)" stroke-width="1.5"></path><path d="M1305.58 236.68L1305.58 236.68" stroke="rgba(159, 199, 232, 1)" stroke-width="1.5"></path><path d="M1305.58 236.68L1440.28 229.02" stroke="rgba(159, 199, 232, 1)" stroke-width="1.5"></path><path d="M1305.58 236.68L1405.37 350.53" stroke="rgba(159, 199, 232, 1)" stroke-width="1.5"></path><path d="M1305.58 236.68L1275.31 388.6" stroke="rgba(159, 199, 232, 1)" stroke-width="1.5"></path><path d="M1305.58 236.68L1137.87 200.96" stroke="rgba(159, 199, 232, 1)" stroke-width="1.5"></path><path d="M1305.58 236.68L1295.61 61.15" stroke="rgba(159, 199, 232, 1)" stroke-width="1.5"></path><path d="M1275.31 388.6L1275.31 388.6" stroke="rgba(159, 199, 232, 1)" stroke-width="1.5"></path><path d="M1275.31 388.6L1245.12 493.65" stroke="rgba(159, 199, 232, 1)" stroke-width="1.5"></path><path d="M1275.31 388.6L1405.37 350.53" stroke="rgba(159, 199, 232, 1)" stroke-width="1.5"></path><path d="M1275.31 388.6L1444.7 493.44" stroke="rgba(159, 199, 232, 1)" stroke-width="1.5"></path><path d="M1245.12 493.65L1245.12 493.65" stroke="rgba(159, 199, 232, 1)" stroke-width="1.5"></path><path d="M1245.12 493.65L1309.81 667.27" stroke="rgba(159, 199, 232, 1)" stroke-width="1.5"></path><path d="M1309.81 667.27L1309.81 667.27" stroke="rgba(159, 199, 232, 1)" stroke-width="1.5"></path><path d="M1309.81 667.27L1279 801.27" stroke="rgba(159, 199, 232, 1)" stroke-width="1.5"></path><path d="M1309.81 667.27L1431.87 804.06" stroke="rgba(159, 199, 232, 1)" stroke-width="1.5"></path><path d="M1309.81 667.27L1137.47 535.42" stroke="rgba(159, 199, 232, 1)" stroke-width="1.5"></path><path d="M1279 801.27L1279 801.27" stroke="rgba(159, 199, 232, 1)" stroke-width="1.5"></path><path d="M1279 801.27L1431.87 804.06" stroke="rgba(159, 199, 232, 1)" stroke-width="1.5"></path><path d="M1279 801.27L1146.72 655.85" stroke="rgba(159, 199, 232, 1)" stroke-width="1.5"></path><path d="M1279 801.27L1557.22 848.75" stroke="rgba(159, 199, 232, 1)" stroke-width="1.5"></path><path d="M1451.36 -97.17L1451.36 -97.17" stroke="rgba(159, 199, 232, 1)" stroke-width="1.5"></path><path d="M1451.36 -97.17L1575.01 -107.96" stroke="rgba(159, 199, 232, 1)" stroke-width="1.5"></path><path d="M1451.36 -97.17L1428.37 82.8" stroke="rgba(159, 199, 232, 1)" stroke-width="1.5"></path><path d="M1451.36 -97.17L1262.27 -41.99" stroke="rgba(159, 199, 232, 1)" stroke-width="1.5"></path><path d="M1451.36 -97.17L1295.61 61.15" stroke="rgba(159, 199, 232, 1)" stroke-width="1.5"></path><path d="M1451.36 -97.17L1161.19 -108.42" stroke="rgba(159, 199, 232, 1)" stroke-width="1.5"></path><path d="M1451.36 -97.17L1555.65 187.88" stroke="rgba(159, 199, 232, 1)" stroke-width="1.5"></path><path d="M1428.37 82.8L1428.37 82.8" stroke="rgba(159, 199, 232, 1)" stroke-width="1.5"></path><path d="M1428.37 82.8L1440.28 229.02" stroke="rgba(159, 199, 232, 1)" stroke-width="1.5"></path><path d="M1428.37 82.8L1555.65 187.88" stroke="rgba(159, 199, 232, 1)" stroke-width="1.5"></path><path d="M1440.28 229.02L1440.28 229.02" stroke="rgba(159, 199, 232, 1)" stroke-width="1.5"></path><path d="M1440.28 229.02L1555.65 187.88" stroke="rgba(159, 199, 232, 1)" stroke-width="1.5"></path><path d="M1440.28 229.02L1405.37 350.53" stroke="rgba(159, 199, 232, 1)" stroke-width="1.5"></path><path d="M1440.28 229.02L1566.68 392.44" stroke="rgba(159, 199, 232, 1)" stroke-width="1.5"></path><path d="M1440.28 229.02L1295.61 61.15" stroke="rgba(159, 199, 232, 1)" stroke-width="1.5"></path><path d="M1405.37 350.53L1405.37 350.53" stroke="rgba(159, 199, 232, 1)" stroke-width="1.5"></path><path d="M1444.7 493.44L1444.7 493.44" stroke="rgba(159, 199, 232, 1)" stroke-width="1.5"></path><path d="M1444.7 493.44L1405.37 350.53" stroke="rgba(159, 199, 232, 1)" stroke-width="1.5"></path><path d="M1444.7 493.44L1601.35 510.71" stroke="rgba(159, 199, 232, 1)" stroke-width="1.5"></path><path d="M1444.7 493.44L1566.68 392.44" stroke="rgba(159, 199, 232, 1)" stroke-width="1.5"></path><path d="M1431.87 804.06L1431.87 804.06" stroke="rgba(159, 199, 232, 1)" stroke-width="1.5"></path><path d="M1431.87 804.06L1557.22 848.75" stroke="rgba(159, 199, 232, 1)" stroke-width="1.5"></path><path d="M1431.87 804.06L1565.47 692.07" stroke="rgba(159, 199, 232, 1)" stroke-width="1.5"></path><path d="M1431.87 804.06L1444.7 493.44" stroke="rgba(159, 199, 232, 1)" stroke-width="1.5"></path><path d="M1431.87 804.06L1146.72 655.85" stroke="rgba(159, 199, 232, 1)" stroke-width="1.5"></path><path d="M1575.01 -107.96L1575.01 -107.96" stroke="rgba(159, 199, 232, 1)" stroke-width="1.5"></path><path d="M1575.01 -107.96L1428.37 82.8" stroke="rgba(159, 199, 232, 1)" stroke-width="1.5"></path><path d="M1575.01 -107.96L1555.65 187.88" stroke="rgba(159, 199, 232, 1)" stroke-width="1.5"></path><path d="M1555.65 187.88L1555.65 187.88" stroke="rgba(159, 199, 232, 1)" stroke-width="1.5"></path><path d="M1555.65 187.88L1566.68 392.44" stroke="rgba(159, 199, 232, 1)" stroke-width="1.5"></path><path d="M1555.65 187.88L1405.37 350.53" stroke="rgba(159, 199, 232, 1)" stroke-width="1.5"></path><path d="M1555.65 187.88L1305.58 236.68" stroke="rgba(159, 199, 232, 1)" stroke-width="1.5"></path><path d="M1566.68 392.44L1566.68 392.44" stroke="rgba(159, 199, 232, 1)" stroke-width="1.5"></path><path d="M1566.68 392.44L1601.35 510.71" stroke="rgba(159, 199, 232, 1)" stroke-width="1.5"></path><path d="M1566.68 392.44L1405.37 350.53" stroke="rgba(159, 199, 232, 1)" stroke-width="1.5"></path><path d="M1601.35 510.71L1601.35 510.71" stroke="rgba(159, 199, 232, 1)" stroke-width="1.5"></path><path d="M1601.35 510.71L1565.47 692.07" stroke="rgba(159, 199, 232, 1)" stroke-width="1.5"></path><path d="M1601.35 510.71L1405.37 350.53" stroke="rgba(159, 199, 232, 1)" stroke-width="1.5"></path><path d="M1601.35 510.71L1440.28 229.02" stroke="rgba(159, 199, 232, 1)" stroke-width="1.5"></path><path d="M1601.35 510.71L1555.65 187.88" stroke="rgba(159, 199, 232, 1)" stroke-width="1.5"></path><path d="M1565.47 692.07L1565.47 692.07" stroke="rgba(159, 199, 232, 1)" stroke-width="1.5"></path><path d="M1565.47 692.07L1557.22 848.75" stroke="rgba(159, 199, 232, 1)" stroke-width="1.5"></path><path d="M1557.22 848.75L1557.22 848.75" stroke="rgba(159, 199, 232, 1)" stroke-width="1.5"></path><path d="M1557.22 848.75L1309.81 667.27" stroke="rgba(159, 199, 232, 1)" stroke-width="1.5"></path><circle r="5" cx="-98.21" cy="513.14" fill="rgba(159, 199, 232, 1)"></circle><circle r="5" cx="-88.62" cy="700.21" fill="rgba(159, 199, 232, 1)"></circle><circle r="5" cx="-91.93" cy="837.27" fill="rgba(159, 199, 232, 1)"></circle><circle r="5" cx="108.63" cy="490.94" fill="rgba(159, 199, 232, 1)"></circle><circle r="5" cx="231.05" cy="560.06" fill="rgba(159, 199, 232, 1)"></circle><circle r="5" cx="201.34" cy="666.09" fill="rgba(159, 199, 232, 1)"></circle><circle r="5" cx="200.36" cy="796.7" fill="rgba(159, 199, 232, 1)"></circle><circle r="5" cx="392.8" cy="515.92" fill="rgba(159, 199, 232, 1)"></circle><circle r="5" cx="392.76" cy="670.49" fill="rgba(159, 199, 232, 1)"></circle><circle r="5" cx="339.51" cy="833.4" fill="rgba(159, 199, 232, 1)"></circle><circle r="5" cx="500.18" cy="377.11" fill="rgba(159, 199, 232, 1)"></circle><circle r="5" cx="536.39" cy="516.91" fill="rgba(159, 199, 232, 1)"></circle><circle r="5" cx="513.33" cy="662.17" fill="rgba(159, 199, 232, 1)"></circle><circle r="5" cx="559.89" cy="827.38" fill="rgba(159, 199, 232, 1)"></circle><circle r="5" cx="657.77" cy="397.34" fill="rgba(159, 199, 232, 1)"></circle><circle r="5" cx="639.52" cy="521.45" fill="rgba(159, 199, 232, 1)"></circle><circle r="5" cx="694.22" cy="657.12" fill="rgba(159, 199, 232, 1)"></circle><circle r="5" cx="688.95" cy="815.89" fill="rgba(159, 199, 232, 1)"></circle><circle r="5" cx="836.52" cy="227.9" fill="rgba(159, 199, 232, 1)"></circle><circle r="5" cx="812.17" cy="398.93" fill="rgba(159, 199, 232, 1)"></circle><circle r="5" cx="790.76" cy="550.84" fill="rgba(159, 199, 232, 1)"></circle><circle r="5" cx="807.97" cy="709.74" fill="rgba(159, 199, 232, 1)"></circle><circle r="5" cx="857.26" cy="832.04" fill="rgba(159, 199, 232, 1)"></circle><circle r="5" cx="967.84" cy="-105.41" fill="rgba(159, 199, 232, 1)"></circle><circle r="5" cx="971.24" cy="94.66" fill="rgba(159, 199, 232, 1)"></circle><circle r="5" cx="988.8" cy="232.79" fill="rgba(159, 199, 232, 1)"></circle><circle r="5" cx="938.43" cy="399.65" fill="rgba(159, 199, 232, 1)"></circle><circle r="5" cx="973.67" cy="540.42" fill="rgba(159, 199, 232, 1)"></circle><circle r="5" cx="1005.89" cy="679.12" fill="rgba(159, 199, 232, 1)"></circle><circle r="5" cx="944.42" cy="819.14" fill="rgba(159, 199, 232, 1)"></circle><circle r="5" cx="1161.19" cy="-108.42" fill="rgba(159, 199, 232, 1)"></circle><circle r="5" cx="1121.85" cy="47.65" fill="rgba(159, 199, 232, 1)"></circle><circle r="5" cx="1137.87" cy="200.96" fill="rgba(159, 199, 232, 1)"></circle><circle r="5" cx="1158.58" cy="365.17" fill="rgba(159, 199, 232, 1)"></circle><circle r="5" cx="1137.47" cy="535.42" fill="rgba(159, 199, 232, 1)"></circle><circle r="5" cx="1146.72" cy="655.85" fill="rgba(159, 199, 232, 1)"></circle><circle r="5" cx="1108.54" cy="825.4" fill="rgba(159, 199, 232, 1)"></circle><circle r="5" cx="1262.27" cy="-41.99" fill="rgba(159, 199, 232, 1)"></circle><circle r="5" cx="1295.61" cy="61.15" fill="rgba(159, 199, 232, 1)"></circle><circle r="5" cx="1305.58" cy="236.68" fill="rgba(159, 199, 232, 1)"></circle><circle r="5" cx="1275.31" cy="388.6" fill="rgba(159, 199, 232, 1)"></circle><circle r="5" cx="1245.12" cy="493.65" fill="rgba(159, 199, 232, 1)"></circle><circle r="5" cx="1309.81" cy="667.27" fill="rgba(159, 199, 232, 1)"></circle><circle r="5" cx="1279" cy="801.27" fill="rgba(159, 199, 232, 1)"></circle><circle r="5" cx="1451.36" cy="-97.17" fill="rgba(159, 199, 232, 1)"></circle><circle r="5" cx="1428.37" cy="82.8" fill="rgba(159, 199, 232, 1)"></circle><circle r="5" cx="1440.28" cy="229.02" fill="rgba(159, 199, 232, 1)"></circle><circle r="5" cx="1405.37" cy="350.53" fill="rgba(159, 199, 232, 1)"></circle><circle r="5" cx="1444.7" cy="493.44" fill="rgba(159, 199, 232, 1)"></circle><circle r="5" cx="1431.87" cy="804.06" fill="rgba(159, 199, 232, 1)"></circle><circle r="5" cx="1575.01" cy="-107.96" fill="rgba(159, 199, 232, 1)"></circle><circle r="5" cx="1555.65" cy="187.88" fill="rgba(159, 199, 232, 1)"></circle><circle r="5" cx="1566.68" cy="392.44" fill="rgba(159, 199, 232, 1)"></circle><circle r="5" cx="1601.35" cy="510.71" fill="rgba(159, 199, 232, 1)"></circle><circle r="5" cx="1565.47" cy="692.07" fill="rgba(159, 199, 232, 1)"></circle><circle r="5" cx="1557.22" cy="848.75" fill="rgba(159, 199, 232, 1)"></circle><path d="M64.84 708.33L64.84 708.33" stroke="hsl(209.60000000000002, 100%, 65%)" stroke-width="1.5"></path><path d="M64.84 708.33L56.13 805.52" stroke="hsl(209.60000000000002, 100%, 65%)" stroke-width="1.5"></path><path d="M64.84 708.33L208.94 643.73" stroke="hsl(209.60000000000002, 100%, 65%)" stroke-width="1.5"></path><path d="M64.84 708.33L-112.18 711.07" stroke="hsl(209.60000000000002, 100%, 65%)" stroke-width="1.5"></path><path d="M64.84 708.33L-106.13 848.31" stroke="hsl(209.60000000000002, 100%, 65%)" stroke-width="1.5"></path><path d="M64.84 708.33L252.04 847.16" stroke="hsl(209.60000000000002, 100%, 65%)" stroke-width="1.5"></path><path d="M208.94 643.73L208.94 643.73" stroke="hsl(209.60000000000002, 100%, 65%)" stroke-width="1.5"></path><path d="M208.94 643.73L367.87 706.34" stroke="hsl(209.60000000000002, 100%, 65%)" stroke-width="1.5"></path><path d="M208.94 643.73L252.04 847.16" stroke="hsl(209.60000000000002, 100%, 65%)" stroke-width="1.5"></path><path d="M208.94 643.73L56.13 805.52" stroke="hsl(209.60000000000002, 100%, 65%)" stroke-width="1.5"></path><path d="M208.94 643.73L411.11 860.44" stroke="hsl(209.60000000000002, 100%, 65%)" stroke-width="1.5"></path><path d="M208.94 643.73L494.39 531.17" stroke="hsl(209.60000000000002, 100%, 65%)" stroke-width="1.5"></path><path d="M252.04 847.16L252.04 847.16" stroke="hsl(209.60000000000002, 100%, 65%)" stroke-width="1.5"></path><path d="M252.04 847.16L411.11 860.44" stroke="hsl(209.60000000000002, 100%, 65%)" stroke-width="1.5"></path><path d="M252.04 847.16L367.87 706.34" stroke="hsl(209.60000000000002, 100%, 65%)" stroke-width="1.5"></path><path d="M252.04 847.16L56.13 805.52" stroke="hsl(209.60000000000002, 100%, 65%)" stroke-width="1.5"></path><path d="M252.04 847.16L496.18 848.22" stroke="hsl(209.60000000000002, 100%, 65%)" stroke-width="1.5"></path><path d="M496.18 848.22L496.18 848.22" stroke="hsl(209.60000000000002, 100%, 65%)" stroke-width="1.5"></path><path d="M496.18 848.22L411.11 860.44" stroke="hsl(209.60000000000002, 100%, 65%)" stroke-width="1.5"></path><path d="M496.18 848.22L557.49 686.02" stroke="hsl(209.60000000000002, 100%, 65%)" stroke-width="1.5"></path><path d="M496.18 848.22L668.92 800.75" stroke="hsl(209.60000000000002, 100%, 65%)" stroke-width="1.5"></path><path d="M649.01 706.06L649.01 706.06" stroke="hsl(209.60000000000002, 100%, 65%)" stroke-width="1.5"></path><path d="M649.01 706.06L557.49 686.02" stroke="hsl(209.60000000000002, 100%, 65%)" stroke-width="1.5"></path><path d="M649.01 706.06L668.92 800.75" stroke="hsl(209.60000000000002, 100%, 65%)" stroke-width="1.5"></path><path d="M649.01 706.06L801.84 817.5" stroke="hsl(209.60000000000002, 100%, 65%)" stroke-width="1.5"></path><path d="M649.01 706.06L496.18 848.22" stroke="hsl(209.60000000000002, 100%, 65%)" stroke-width="1.5"></path><path d="M861.84 667.45L861.84 667.45" stroke="hsl(209.60000000000002, 100%, 65%)" stroke-width="1.5"></path><path d="M861.84 667.45L956.25 699.77" stroke="hsl(209.60000000000002, 100%, 65%)" stroke-width="1.5"></path><path d="M861.84 667.45L805.86 550.68" stroke="hsl(209.60000000000002, 100%, 65%)" stroke-width="1.5"></path><path d="M861.84 667.45L801.84 817.5" stroke="hsl(209.60000000000002, 100%, 65%)" stroke-width="1.5"></path><path d="M861.84 667.45L939.25 826.43" stroke="hsl(209.60000000000002, 100%, 65%)" stroke-width="1.5"></path><path d="M1415.96 -85.9L1415.96 -85.9" stroke="hsl(209.60000000000002, 100%, 65%)" stroke-width="1.5"></path><path d="M1415.96 -85.9L1288.5 -103.74" stroke="hsl(209.60000000000002, 100%, 65%)" stroke-width="1.5"></path><path d="M1415.96 -85.9L1575.04 -72.64" stroke="hsl(209.60000000000002, 100%, 65%)" stroke-width="1.5"></path><path d="M1429.91 76.54L1429.91 76.54" stroke="hsl(209.60000000000002, 100%, 65%)" stroke-width="1.5"></path><path d="M1429.91 76.54L1404.2 194.44" stroke="hsl(209.60000000000002, 100%, 65%)" stroke-width="1.5"></path><path d="M1429.91 76.54L1289.91 109.57" stroke="hsl(209.60000000000002, 100%, 65%)" stroke-width="1.5"></path><path d="M1429.91 76.54L1590.82 71.45" stroke="hsl(209.60000000000002, 100%, 65%)" stroke-width="1.5"></path><path d="M1429.91 76.54L1415.96 -85.9" stroke="hsl(209.60000000000002, 100%, 65%)" stroke-width="1.5"></path><path d="M1429.91 76.54L1575.04 -72.64" stroke="hsl(209.60000000000002, 100%, 65%)" stroke-width="1.5"></path><path d="M1429.91 76.54L1573.32 227.46" stroke="hsl(209.60000000000002, 100%, 65%)" stroke-width="1.5"></path><path d="M1575.04 -72.64L1575.04 -72.64" stroke="hsl(209.60000000000002, 100%, 65%)" stroke-width="1.5"></path><path d="M1575.04 -72.64L1590.82 71.45" stroke="hsl(209.60000000000002, 100%, 65%)" stroke-width="1.5"></path><path d="M1575.04 -72.64L1288.5 -103.74" stroke="hsl(209.60000000000002, 100%, 65%)" stroke-width="1.5"></path><path d="M1575.04 -72.64L1573.32 227.46" stroke="hsl(209.60000000000002, 100%, 65%)" stroke-width="1.5"></path><path d="M1575.04 -72.64L1404.2 194.44" stroke="hsl(209.60000000000002, 100%, 65%)" stroke-width="1.5"></path><path d="M-112.18 711.07L-112.18 711.07" stroke="hsl(209.60000000000002, 100%, 65%)" stroke-width="1.5"></path><path d="M-112.18 711.07L-106.13 848.31" stroke="hsl(209.60000000000002, 100%, 65%)" stroke-width="1.5"></path><path d="M-112.18 711.07L56.13 805.52" stroke="hsl(209.60000000000002, 100%, 65%)" stroke-width="1.5"></path><path d="M-112.18 711.07L208.94 643.73" stroke="hsl(209.60000000000002, 100%, 65%)" stroke-width="1.5"></path><path d="M-112.18 711.07L252.04 847.16" stroke="hsl(209.60000000000002, 100%, 65%)" stroke-width="1.5"></path><path d="M-112.18 711.07L367.87 706.34" stroke="hsl(209.60000000000002, 100%, 65%)" stroke-width="1.5"></path><path d="M-106.13 848.31L-106.13 848.31" stroke="hsl(209.60000000000002, 100%, 65%)" stroke-width="1.5"></path><path d="M-106.13 848.31L56.13 805.52" stroke="hsl(209.60000000000002, 100%, 65%)" stroke-width="1.5"></path><path d="M56.13 805.52L56.13 805.52" stroke="hsl(209.60000000000002, 100%, 65%)" stroke-width="1.5"></path><path d="M367.87 706.34L367.87 706.34" stroke="hsl(209.60000000000002, 100%, 65%)" stroke-width="1.5"></path><path d="M367.87 706.34L411.11 860.44" stroke="hsl(209.60000000000002, 100%, 65%)" stroke-width="1.5"></path><path d="M367.87 706.34L557.49 686.02" stroke="hsl(209.60000000000002, 100%, 65%)" stroke-width="1.5"></path><path d="M367.87 706.34L496.18 848.22" stroke="hsl(209.60000000000002, 100%, 65%)" stroke-width="1.5"></path><path d="M411.11 860.44L411.11 860.44" stroke="hsl(209.60000000000002, 100%, 65%)" stroke-width="1.5"></path><path d="M411.11 860.44L557.49 686.02" stroke="hsl(209.60000000000002, 100%, 65%)" stroke-width="1.5"></path><path d="M411.11 860.44L668.92 800.75" stroke="hsl(209.60000000000002, 100%, 65%)" stroke-width="1.5"></path><path d="M411.11 860.44L649.01 706.06" stroke="hsl(209.60000000000002, 100%, 65%)" stroke-width="1.5"></path><path d="M494.39 531.17L494.39 531.17" stroke="hsl(209.60000000000002, 100%, 65%)" stroke-width="1.5"></path><path d="M494.39 531.17L557.49 686.02" stroke="hsl(209.60000000000002, 100%, 65%)" stroke-width="1.5"></path><path d="M494.39 531.17L673.38 496.96" stroke="hsl(209.60000000000002, 100%, 65%)" stroke-width="1.5"></path><path d="M494.39 531.17L367.87 706.34" stroke="hsl(209.60000000000002, 100%, 65%)" stroke-width="1.5"></path><path d="M494.39 531.17L649.01 706.06" stroke="hsl(209.60000000000002, 100%, 65%)" stroke-width="1.5"></path><path d="M494.39 531.17L805.86 550.68" stroke="hsl(209.60000000000002, 100%, 65%)" stroke-width="1.5"></path><path d="M557.49 686.02L557.49 686.02" stroke="hsl(209.60000000000002, 100%, 65%)" stroke-width="1.5"></path><path d="M557.49 686.02L668.92 800.75" stroke="hsl(209.60000000000002, 100%, 65%)" stroke-width="1.5"></path><path d="M673.38 496.96L673.38 496.96" stroke="hsl(209.60000000000002, 100%, 65%)" stroke-width="1.5"></path><path d="M673.38 496.96L805.86 550.68" stroke="hsl(209.60000000000002, 100%, 65%)" stroke-width="1.5"></path><path d="M668.92 800.75L668.92 800.75" stroke="hsl(209.60000000000002, 100%, 65%)" stroke-width="1.5"></path><path d="M668.92 800.75L801.84 817.5" stroke="hsl(209.60000000000002, 100%, 65%)" stroke-width="1.5"></path><path d="M805.86 550.68L805.86 550.68" stroke="hsl(209.60000000000002, 100%, 65%)" stroke-width="1.5"></path><path d="M805.86 550.68L988.82 536.08" stroke="hsl(209.60000000000002, 100%, 65%)" stroke-width="1.5"></path><path d="M805.86 550.68L956.25 699.77" stroke="hsl(209.60000000000002, 100%, 65%)" stroke-width="1.5"></path><path d="M805.86 550.68L649.01 706.06" stroke="hsl(209.60000000000002, 100%, 65%)" stroke-width="1.5"></path><path d="M801.84 817.5L801.84 817.5" stroke="hsl(209.60000000000002, 100%, 65%)" stroke-width="1.5"></path><path d="M801.84 817.5L939.25 826.43" stroke="hsl(209.60000000000002, 100%, 65%)" stroke-width="1.5"></path><path d="M986.96 342.35L986.96 342.35" stroke="hsl(209.60000000000002, 100%, 65%)" stroke-width="1.5"></path><path d="M986.96 342.35L1126.92 253.93" stroke="hsl(209.60000000000002, 100%, 65%)" stroke-width="1.5"></path><path d="M986.96 342.35L988.82 536.08" stroke="hsl(209.60000000000002, 100%, 65%)" stroke-width="1.5"></path><path d="M986.96 342.35L1108.35 512.81" stroke="hsl(209.60000000000002, 100%, 65%)" stroke-width="1.5"></path><path d="M986.96 342.35L1257.62 343.91" stroke="hsl(209.60000000000002, 100%, 65%)" stroke-width="1.5"></path><path d="M988.82 536.08L988.82 536.08" stroke="hsl(209.60000000000002, 100%, 65%)" stroke-width="1.5"></path><path d="M988.82 536.08L1108.35 512.81" stroke="hsl(209.60000000000002, 100%, 65%)" stroke-width="1.5"></path><path d="M988.82 536.08L956.25 699.77" stroke="hsl(209.60000000000002, 100%, 65%)" stroke-width="1.5"></path><path d="M988.82 536.08L861.84 667.45" stroke="hsl(209.60000000000002, 100%, 65%)" stroke-width="1.5"></path><path d="M956.25 699.77L956.25 699.77" stroke="hsl(209.60000000000002, 100%, 65%)" stroke-width="1.5"></path><path d="M956.25 699.77L939.25 826.43" stroke="hsl(209.60000000000002, 100%, 65%)" stroke-width="1.5"></path><path d="M956.25 699.77L1092.07 709.02" stroke="hsl(209.60000000000002, 100%, 65%)" stroke-width="1.5"></path><path d="M956.25 699.77L801.84 817.5" stroke="hsl(209.60000000000002, 100%, 65%)" stroke-width="1.5"></path><path d="M939.25 826.43L939.25 826.43" stroke="hsl(209.60000000000002, 100%, 65%)" stroke-width="1.5"></path><path d="M939.25 826.43L1092.07 709.02" stroke="hsl(209.60000000000002, 100%, 65%)" stroke-width="1.5"></path><path d="M1126.92 253.93L1126.92 253.93" stroke="hsl(209.60000000000002, 100%, 65%)" stroke-width="1.5"></path><path d="M1126.92 253.93L1270.78 261.44" stroke="hsl(209.60000000000002, 100%, 65%)" stroke-width="1.5"></path><path d="M1126.92 253.93L1257.62 343.91" stroke="hsl(209.60000000000002, 100%, 65%)" stroke-width="1.5"></path><path d="M1126.92 253.93L1289.91 109.57" stroke="hsl(209.60000000000002, 100%, 65%)" stroke-width="1.5"></path><path d="M1108.35 512.81L1108.35 512.81" stroke="hsl(209.60000000000002, 100%, 65%)" stroke-width="1.5"></path><path d="M1108.35 512.81L1298.6 491.59" stroke="hsl(209.60000000000002, 100%, 65%)" stroke-width="1.5"></path><path d="M1108.35 512.81L1092.07 709.02" stroke="hsl(209.60000000000002, 100%, 65%)" stroke-width="1.5"></path><path d="M1092.07 709.02L1092.07 709.02" stroke="hsl(209.60000000000002, 100%, 65%)" stroke-width="1.5"></path><path d="M1092.07 709.02L1146.62 801.4" stroke="hsl(209.60000000000002, 100%, 65%)" stroke-width="1.5"></path><path d="M1146.62 801.4L1146.62 801.4" stroke="hsl(209.60000000000002, 100%, 65%)" stroke-width="1.5"></path><path d="M1146.62 801.4L1300.43 837.33" stroke="hsl(209.60000000000002, 100%, 65%)" stroke-width="1.5"></path><path d="M1146.62 801.4L939.25 826.43" stroke="hsl(209.60000000000002, 100%, 65%)" stroke-width="1.5"></path><path d="M1146.62 801.4L956.25 699.77" stroke="hsl(209.60000000000002, 100%, 65%)" stroke-width="1.5"></path><path d="M1146.62 801.4L1306.44 647.01" stroke="hsl(209.60000000000002, 100%, 65%)" stroke-width="1.5"></path><path d="M1288.5 -103.74L1288.5 -103.74" stroke="hsl(209.60000000000002, 100%, 65%)" stroke-width="1.5"></path><path d="M1288.5 -103.74L1289.91 109.57" stroke="hsl(209.60000000000002, 100%, 65%)" stroke-width="1.5"></path><path d="M1288.5 -103.74L1429.91 76.54" stroke="hsl(209.60000000000002, 100%, 65%)" stroke-width="1.5"></path><path d="M1289.91 109.57L1289.91 109.57" stroke="hsl(209.60000000000002, 100%, 65%)" stroke-width="1.5"></path><path d="M1289.91 109.57L1404.2 194.44" stroke="hsl(209.60000000000002, 100%, 65%)" stroke-width="1.5"></path><path d="M1289.91 109.57L1270.78 261.44" stroke="hsl(209.60000000000002, 100%, 65%)" stroke-width="1.5"></path><path d="M1270.78 261.44L1270.78 261.44" stroke="hsl(209.60000000000002, 100%, 65%)" stroke-width="1.5"></path><path d="M1270.78 261.44L1257.62 343.91" stroke="hsl(209.60000000000002, 100%, 65%)" stroke-width="1.5"></path><path d="M1257.62 343.91L1257.62 343.91" stroke="hsl(209.60000000000002, 100%, 65%)" stroke-width="1.5"></path><path d="M1257.62 343.91L1298.6 491.59" stroke="hsl(209.60000000000002, 100%, 65%)" stroke-width="1.5"></path><path d="M1298.6 491.59L1298.6 491.59" stroke="hsl(209.60000000000002, 100%, 65%)" stroke-width="1.5"></path><path d="M1298.6 491.59L1416.87 543.15" stroke="hsl(209.60000000000002, 100%, 65%)" stroke-width="1.5"></path><path d="M1298.6 491.59L1306.44 647.01" stroke="hsl(209.60000000000002, 100%, 65%)" stroke-width="1.5"></path><path d="M1298.6 491.59L1447.01 340.29" stroke="hsl(209.60000000000002, 100%, 65%)" stroke-width="1.5"></path><path d="M1298.6 491.59L1270.78 261.44" stroke="hsl(209.60000000000002, 100%, 65%)" stroke-width="1.5"></path><path d="M1306.44 647.01L1306.44 647.01" stroke="hsl(209.60000000000002, 100%, 65%)" stroke-width="1.5"></path><path d="M1306.44 647.01L1416.87 543.15" stroke="hsl(209.60000000000002, 100%, 65%)" stroke-width="1.5"></path><path d="M1306.44 647.01L1458.24 662.28" stroke="hsl(209.60000000000002, 100%, 65%)" stroke-width="1.5"></path><path d="M1306.44 647.01L1300.43 837.33" stroke="hsl(209.60000000000002, 100%, 65%)" stroke-width="1.5"></path><path d="M1300.43 837.33L1300.43 837.33" stroke="hsl(209.60000000000002, 100%, 65%)" stroke-width="1.5"></path><path d="M1300.43 837.33L1446.34 850.29" stroke="hsl(209.60000000000002, 100%, 65%)" stroke-width="1.5"></path><path d="M1404.2 194.44L1404.2 194.44" stroke="hsl(209.60000000000002, 100%, 65%)" stroke-width="1.5"></path><path d="M1404.2 194.44L1270.78 261.44" stroke="hsl(209.60000000000002, 100%, 65%)" stroke-width="1.5"></path><path d="M1404.2 194.44L1447.01 340.29" stroke="hsl(209.60000000000002, 100%, 65%)" stroke-width="1.5"></path><path d="M1404.2 194.44L1573.32 227.46" stroke="hsl(209.60000000000002, 100%, 65%)" stroke-width="1.5"></path><path d="M1404.2 194.44L1257.62 343.91" stroke="hsl(209.60000000000002, 100%, 65%)" stroke-width="1.5"></path><path d="M1447.01 340.29L1447.01 340.29" stroke="hsl(209.60000000000002, 100%, 65%)" stroke-width="1.5"></path><path d="M1447.01 340.29L1563.67 409.74" stroke="hsl(209.60000000000002, 100%, 65%)" stroke-width="1.5"></path><path d="M1447.01 340.29L1573.32 227.46" stroke="hsl(209.60000000000002, 100%, 65%)" stroke-width="1.5"></path><path d="M1447.01 340.29L1257.62 343.91" stroke="hsl(209.60000000000002, 100%, 65%)" stroke-width="1.5"></path><path d="M1416.87 543.15L1416.87 543.15" stroke="hsl(209.60000000000002, 100%, 65%)" stroke-width="1.5"></path><path d="M1416.87 543.15L1458.24 662.28" stroke="hsl(209.60000000000002, 100%, 65%)" stroke-width="1.5"></path><path d="M1416.87 543.15L1586.88 550.17" stroke="hsl(209.60000000000002, 100%, 65%)" stroke-width="1.5"></path><path d="M1416.87 543.15L1580.65 642.91" stroke="hsl(209.60000000000002, 100%, 65%)" stroke-width="1.5"></path><path d="M1458.24 662.28L1458.24 662.28" stroke="hsl(209.60000000000002, 100%, 65%)" stroke-width="1.5"></path><path d="M1458.24 662.28L1580.65 642.91" stroke="hsl(209.60000000000002, 100%, 65%)" stroke-width="1.5"></path><path d="M1446.34 850.29L1446.34 850.29" stroke="hsl(209.60000000000002, 100%, 65%)" stroke-width="1.5"></path><path d="M1446.34 850.29L1541.97 829.54" stroke="hsl(209.60000000000002, 100%, 65%)" stroke-width="1.5"></path><path d="M1446.34 850.29L1458.24 662.28" stroke="hsl(209.60000000000002, 100%, 65%)" stroke-width="1.5"></path><path d="M1446.34 850.29L1306.44 647.01" stroke="hsl(209.60000000000002, 100%, 65%)" stroke-width="1.5"></path><path d="M1446.34 850.29L1580.65 642.91" stroke="hsl(209.60000000000002, 100%, 65%)" stroke-width="1.5"></path><path d="M1590.82 71.45L1590.82 71.45" stroke="hsl(209.60000000000002, 100%, 65%)" stroke-width="1.5"></path><path d="M1590.82 71.45L1573.32 227.46" stroke="hsl(209.60000000000002, 100%, 65%)" stroke-width="1.5"></path><path d="M1590.82 71.45L1404.2 194.44" stroke="hsl(209.60000000000002, 100%, 65%)" stroke-width="1.5"></path><path d="M1590.82 71.45L1415.96 -85.9" stroke="hsl(209.60000000000002, 100%, 65%)" stroke-width="1.5"></path><path d="M1573.32 227.46L1573.32 227.46" stroke="hsl(209.60000000000002, 100%, 65%)" stroke-width="1.5"></path><path d="M1563.67 409.74L1563.67 409.74" stroke="hsl(209.60000000000002, 100%, 65%)" stroke-width="1.5"></path><path d="M1563.67 409.74L1586.88 550.17" stroke="hsl(209.60000000000002, 100%, 65%)" stroke-width="1.5"></path><path d="M1563.67 409.74L1573.32 227.46" stroke="hsl(209.60000000000002, 100%, 65%)" stroke-width="1.5"></path><path d="M1586.88 550.17L1586.88 550.17" stroke="hsl(209.60000000000002, 100%, 65%)" stroke-width="1.5"></path><path d="M1586.88 550.17L1580.65 642.91" stroke="hsl(209.60000000000002, 100%, 65%)" stroke-width="1.5"></path><path d="M1580.65 642.91L1580.65 642.91" stroke="hsl(209.60000000000002, 100%, 65%)" stroke-width="1.5"></path><path d="M1580.65 642.91L1541.97 829.54" stroke="hsl(209.60000000000002, 100%, 65%)" stroke-width="1.5"></path><path d="M1580.65 642.91L1563.67 409.74" stroke="hsl(209.60000000000002, 100%, 65%)" stroke-width="1.5"></path><path d="M1541.97 829.54L1541.97 829.54" stroke="hsl(209.60000000000002, 100%, 65%)" stroke-width="1.5"></path><path d="M1541.97 829.54L1458.24 662.28" stroke="hsl(209.60000000000002, 100%, 65%)" stroke-width="1.5"></path><circle r="25" cx="64.84" cy="708.33" fill="url(&quot;#SvgjsRadialGradient1671&quot;)"></circle><circle r="25" cx="208.94" cy="643.73" fill="url(&quot;#SvgjsRadialGradient1671&quot;)"></circle><circle r="25" cx="252.04" cy="847.16" fill="url(&quot;#SvgjsRadialGradient1671&quot;)"></circle><circle r="25" cx="496.18" cy="848.22" fill="url(&quot;#SvgjsRadialGradient1671&quot;)"></circle><circle r="25" cx="649.01" cy="706.06" fill="url(&quot;#SvgjsRadialGradient1671&quot;)"></circle><circle r="25" cx="861.84" cy="667.45" fill="url(&quot;#SvgjsRadialGradient1671&quot;)"></circle><circle r="25" cx="1415.96" cy="-85.9" fill="url(&quot;#SvgjsRadialGradient1671&quot;)"></circle><circle r="25" cx="1429.91" cy="76.54" fill="url(&quot;#SvgjsRadialGradient1671&quot;)"></circle><circle r="25" cx="1575.04" cy="-72.64" fill="url(&quot;#SvgjsRadialGradient1671&quot;)"></circle><circle r="5" cx="-112.18" cy="711.07" fill="#80c0ff"></circle><circle r="5" cx="-106.13" cy="848.31" fill="#80c0ff"></circle><circle r="5" cx="56.13" cy="805.52" fill="#80c0ff"></circle><circle r="5" cx="367.87" cy="706.34" fill="#80c0ff"></circle><circle r="5" cx="411.11" cy="860.44" fill="#80c0ff"></circle><circle r="5" cx="494.39" cy="531.17" fill="#80c0ff"></circle><circle r="5" cx="557.49" cy="686.02" fill="#80c0ff"></circle><circle r="5" cx="673.38" cy="496.96" fill="#80c0ff"></circle><circle r="5" cx="668.92" cy="800.75" fill="#80c0ff"></circle><circle r="5" cx="805.86" cy="550.68" fill="#80c0ff"></circle><circle r="5" cx="801.84" cy="817.5" fill="#80c0ff"></circle><circle r="5" cx="986.96" cy="342.35" fill="#80c0ff"></circle><circle r="5" cx="988.82" cy="536.08" fill="#80c0ff"></circle><circle r="5" cx="956.25" cy="699.77" fill="#80c0ff"></circle><circle r="5" cx="939.25" cy="826.43" fill="#80c0ff"></circle><circle r="5" cx="1126.92" cy="253.93" fill="#80c0ff"></circle><circle r="5" cx="1108.35" cy="512.81" fill="#80c0ff"></circle><circle r="5" cx="1092.07" cy="709.02" fill="#80c0ff"></circle><circle r="5" cx="1146.62" cy="801.4" fill="#80c0ff"></circle><circle r="5" cx="1288.5" cy="-103.74" fill="#80c0ff"></circle><circle r="5" cx="1289.91" cy="109.57" fill="#80c0ff"></circle><circle r="5" cx="1270.78" cy="261.44" fill="#80c0ff"></circle><circle r="5" cx="1257.62" cy="343.91" fill="#80c0ff"></circle><circle r="5" cx="1298.6" cy="491.59" fill="#80c0ff"></circle><circle r="5" cx="1306.44" cy="647.01" fill="#80c0ff"></circle><circle r="5" cx="1300.43" cy="837.33" fill="#80c0ff"></circle><circle r="5" cx="1404.2" cy="194.44" fill="#80c0ff"></circle><circle r="5" cx="1447.01" cy="340.29" fill="#80c0ff"></circle><circle r="5" cx="1416.87" cy="543.15" fill="#80c0ff"></circle><circle r="5" cx="1458.24" cy="662.28" fill="#80c0ff"></circle><circle r="5" cx="1446.34" cy="850.29" fill="#80c0ff"></circle><circle r="5" cx="1590.82" cy="71.45" fill="#80c0ff"></circle><circle r="5" cx="1573.32" cy="227.46" fill="#80c0ff"></circle><circle r="5" cx="1563.67" cy="409.74" fill="#80c0ff"></circle><circle r="5" cx="1586.88" cy="550.17" fill="#80c0ff"></circle><circle r="5" cx="1580.65" cy="642.91" fill="#80c0ff"></circle><circle r="5" cx="1541.97" cy="829.54" fill="#80c0ff"></circle></g><defs><mask id="SvgjsMask1670"><rect width="1440" height="720" fill="#ffffff"></rect></mask><radialGradient id="SvgjsRadialGradient1671"><stop stop-color="#ffffff" offset="0.1"></stop><stop stop-color="rgba(0, 129, 255, 1)" offset="0.2"></stop><stop stop-color="rgba(0, 129, 255, 0)" offset="1"></stop></radialGradient></defs></svg>